<svg width="35" height="34" viewBox="0 0 35 34" fill="none" xmlns="http://www.w3.org/2000/svg">
<path d="M23.9523 10.1154C23.6656 10.1154 23.3852 10.2004 23.1468 10.3598C22.9083 10.5191 22.7225 10.7456 22.6127 11.0105C22.503 11.2755 22.4742 11.567 22.5302 11.8483C22.5862 12.1296 22.7243 12.3879 22.927 12.5907C23.1298 12.7935 23.3882 12.9316 23.6695 12.9876C23.9507 13.0435 24.2422 13.0147 24.5072 12.905C24.7722 12.7953 24.9986 12.6095 25.158 12.371C25.3173 12.1325 25.4023 11.8522 25.4023 11.5654C25.4023 11.1808 25.2495 10.812 24.9777 10.5401C24.7057 10.2682 24.3369 10.1154 23.9523 10.1154ZM29.5106 13.0396C29.4872 12.037 29.2994 11.0451 28.9548 10.1033C28.6476 9.29752 28.1694 8.56786 27.5531 7.96457C26.9548 7.34521 26.2235 6.87003 25.4144 6.57498C24.4752 6.21993 23.4821 6.02786 22.4781 6.00707C21.1973 5.93457 20.7865 5.93457 17.4998 5.93457C14.2131 5.93457 13.8023 5.93457 12.5215 6.00707C11.5176 6.02786 10.5245 6.21993 9.58525 6.57498C8.7777 6.87302 8.04697 7.34779 7.4465 7.96457C6.82715 8.5629 6.35197 9.29427 6.05692 10.1033C5.70186 11.0426 5.5098 12.0356 5.489 13.0396C5.4165 14.3204 5.4165 14.7313 5.4165 18.0179C5.4165 21.3046 5.4165 21.7154 5.489 22.9963C5.5098 24.0002 5.70186 24.9932 6.05692 25.9325C6.35197 26.7415 6.82715 27.4729 7.4465 28.0713C8.04697 28.688 8.7777 29.1628 9.58525 29.4608C10.5245 29.8159 11.5176 30.0079 12.5215 30.0288C13.8023 30.1013 14.2131 30.1013 17.4998 30.1013C20.7865 30.1013 21.1973 30.1013 22.4781 30.0288C23.4821 30.0079 24.4752 29.8159 25.4144 29.4608C26.2235 29.1658 26.9548 28.6906 27.5531 28.0713C28.1721 27.4702 28.6508 26.7399 28.9548 25.9325C29.2994 24.9907 29.4872 23.9988 29.5106 22.9963C29.5106 21.7154 29.5831 21.3046 29.5831 18.0179C29.5831 14.7313 29.5831 14.3204 29.5106 13.0396ZM27.3356 22.8513C27.3268 23.6182 27.1879 24.3782 26.9248 25.0988C26.7319 25.6246 26.422 26.0997 26.0186 26.4883C25.6266 26.8877 25.1525 27.1969 24.629 27.3946C23.9085 27.6577 23.1485 27.7966 22.3815 27.8054C21.1731 27.8658 20.7261 27.8779 17.5481 27.8779C14.3703 27.8779 13.9231 27.8779 12.7148 27.8054C11.9184 27.8203 11.1254 27.6977 10.3707 27.4429C9.87016 27.2352 9.41772 26.9267 9.0415 26.5366C8.64044 26.1485 8.33444 25.6729 8.14734 25.1471C7.85233 24.4162 7.68871 23.639 7.664 22.8513C7.664 21.6429 7.5915 21.1958 7.5915 18.0179C7.5915 14.84 7.5915 14.3929 7.664 13.1846C7.66942 12.4004 7.81257 11.6233 8.08692 10.8887C8.29965 10.3787 8.62616 9.92407 9.0415 9.55957C9.40862 9.1441 9.86231 8.81414 10.3707 8.5929C11.1072 8.32713 11.8835 8.18821 12.6665 8.18207C13.8748 8.18207 14.3219 8.10957 17.4998 8.10957C20.6778 8.10957 21.1248 8.10957 22.3331 8.18207C23.1002 8.19086 23.8602 8.32978 24.5806 8.5929C25.1297 8.79669 25.6226 9.12801 26.0186 9.55957C26.4145 9.93074 26.724 10.3845 26.9248 10.8887C27.1934 11.6245 27.3324 12.4013 27.3356 13.1846C27.3961 14.3929 27.4081 14.84 27.4081 18.0179C27.4081 21.1958 27.3961 21.6429 27.3356 22.8513ZM17.4998 11.8192C16.2744 11.8215 15.0771 12.1871 14.0593 12.8697C13.0415 13.5522 12.2488 14.5212 11.7816 15.6541C11.3143 16.787 11.1932 18.0329 11.4338 19.2346C11.6743 20.4362 12.2656 21.5397 13.133 22.4053C14.0004 23.2711 15.105 23.8602 16.307 24.0985C17.5092 24.3366 18.7549 24.2132 19.8869 23.7437C21.0188 23.2741 21.9862 22.4796 22.6668 21.4605C23.3474 20.4414 23.7106 19.2434 23.7106 18.0179C23.7123 17.2024 23.5526 16.3946 23.2409 15.6411C22.9292 14.8875 22.4716 14.2029 21.8944 13.6269C21.3171 13.0508 20.6317 12.5945 19.8776 12.2843C19.1234 11.974 18.3154 11.816 17.4998 11.8192ZM17.4998 22.0416C16.7041 22.0416 15.926 21.8056 15.2644 21.3635C14.6026 20.9214 14.0869 20.2929 13.7824 19.5577C13.4778 18.8225 13.3981 18.0134 13.5534 17.2329C13.7086 16.4523 14.0919 15.7354 14.6547 15.1727C15.2174 14.6099 15.9343 14.2268 16.7148 14.0714C17.4954 13.9162 18.3044 13.9959 19.0396 14.3004C19.7749 14.6049 20.4034 15.1207 20.8454 15.7824C21.2876 16.4441 21.5236 17.2221 21.5236 18.0179C21.5236 18.5463 21.4195 19.0695 21.2173 19.5577C21.0151 20.0459 20.7187 20.4895 20.3451 20.8631C19.9715 21.2368 19.5278 21.5331 19.0396 21.7353C18.5514 21.9376 18.0283 22.0416 17.4998 22.0416Z" fill="#0A2354"/>
</svg>
