<svg width="35" height="34" viewBox="0 0 35 34" fill="none" xmlns="http://www.w3.org/2000/svg">
<path d="M26.8814 4.93376H7.11808C6.89592 4.93056 6.67533 4.97273 6.46891 5.05784C6.26248 5.14295 6.07426 5.26934 5.91501 5.4298C5.75575 5.59025 5.62857 5.78163 5.54073 5.993C5.4529 6.20437 5.40612 6.43159 5.40308 6.66168V27.3725C5.40612 27.6026 5.4529 27.8298 5.54073 28.0412C5.62857 28.2525 5.75575 28.4439 5.91501 28.6044C6.07426 28.7648 6.26248 28.8912 6.46891 28.9763C6.67533 29.0614 6.89592 29.1037 7.11808 29.1004H26.8814C27.1036 29.1037 27.3242 29.0614 27.5306 28.9763C27.737 28.8912 27.9252 28.7648 28.0845 28.6044C28.2437 28.4439 28.3709 28.2525 28.4587 28.0412C28.5466 27.8298 28.5934 27.6026 28.5965 27.3725V6.66168C28.5934 6.43159 28.5466 6.20437 28.4587 5.993C28.3709 5.78163 28.2437 5.59025 28.0845 5.4298C27.9252 5.26934 27.737 5.14295 27.5306 5.05784C27.3242 4.97273 27.1036 4.93056 26.8814 4.93376ZM12.4381 25.1613H8.93808V14.2863H12.4381V25.1613ZM10.6881 12.7638C10.2054 12.7638 9.74246 12.5651 9.40114 12.2116C9.05982 11.8582 8.86808 11.3787 8.86808 10.8788C8.86808 10.3788 9.05982 9.89937 9.40114 9.54587C9.74246 9.19236 10.2054 8.99376 10.6881 8.99376C10.9444 8.96366 11.204 8.98997 11.4498 9.07096C11.6956 9.15195 11.9221 9.2858 12.1145 9.46376C12.3069 9.64171 12.4608 9.85975 12.5663 10.1036C12.6716 10.3474 12.7261 10.6116 12.7261 10.8788C12.7261 11.1459 12.6716 11.4101 12.5663 11.6539C12.4608 11.8978 12.3069 12.1158 12.1145 12.2937C11.9221 12.4717 11.6956 12.6056 11.4498 12.6866C11.204 12.7676 10.9444 12.7939 10.6881 12.7638ZM25.0614 25.1613H21.5614V19.325C21.5614 17.8629 21.0597 16.9084 19.7881 16.9084C19.3945 16.9113 19.0113 17.0392 18.69 17.2747C18.3688 17.5102 18.125 17.842 17.9914 18.2254C17.9001 18.5094 17.8605 18.8086 17.8747 19.1075V25.1492H14.3747C14.3747 25.1492 14.3747 15.265 14.3747 14.2742H17.8747V15.8088C18.1927 15.2373 18.6551 14.7666 19.2122 14.4472C19.7694 14.1278 20.4001 13.9719 21.0365 13.9963C23.3697 13.9963 25.0614 15.555 25.0614 18.9021V25.1613Z" fill="#0A2354"/>
</svg>
