<svg width="480" height="401" viewBox="0 0 480 401" fill="none" xmlns="http://www.w3.org/2000/svg">
<rect y="0.517578" width="480" height="400" rx="24" fill="#EEF2FF"/>
<g filter="url(#filter0_d_10_981)">
<rect x="37" y="47.0176" width="406" height="73" rx="16" fill="white" shape-rendering="crispEdges"/>
<rect x="61" y="77.0176" width="13" height="13" rx="6.5" fill="#E05E57"/>
<path d="M89.904 89.0176V79.2096H86.064V77.8176H95.328V79.2096H91.488V89.0176H89.904ZM103.636 84.8256C103.636 84.9536 103.62 85.1456 103.604 85.2896H96.7236C96.9156 86.7776 98.1156 87.7696 99.7956 87.7696C100.788 87.7696 101.62 87.4336 102.244 86.7456L103.092 87.7376C102.324 88.6336 101.156 89.1136 99.7476 89.1136C97.0116 89.1136 95.1876 87.3056 95.1876 84.7776C95.1876 82.2656 96.9956 80.4576 99.4436 80.4576C101.892 80.4576 103.636 82.2176 103.636 84.8256ZM99.4436 81.7536C97.9716 81.7536 96.8836 82.7456 96.7236 84.1856H102.164C102.004 82.7616 100.932 81.7536 99.4436 81.7536ZM108.201 89.1136C106.793 89.1136 105.401 88.6816 104.697 88.1216L105.337 86.9056C106.057 87.4176 107.209 87.7856 108.312 87.7856C109.737 87.7856 110.329 87.3536 110.329 86.6336C110.329 84.7296 104.969 86.3776 104.969 83.0016C104.969 81.4816 106.329 80.4576 108.505 80.4576C109.609 80.4576 110.857 80.7456 111.593 81.2256L110.937 82.4416C110.169 81.9456 109.321 81.7696 108.489 81.7696C107.145 81.7696 106.489 82.2656 106.489 82.9376C106.489 84.9376 111.865 83.3056 111.865 86.6016C111.865 88.1376 110.457 89.1136 108.201 89.1136ZM118.072 87.4176L118.552 88.5216C118.088 88.9216 117.384 89.1136 116.696 89.1136C114.984 89.1136 114.008 88.1696 114.008 86.4576V81.8016H112.568V80.5376H114.008V78.6816H115.544V80.5376H117.976V81.8016H115.544V86.3936C115.544 87.3056 116.024 87.8176 116.872 87.8176C117.32 87.8176 117.752 87.6736 118.072 87.4176ZM123.378 77.8176H127.49V89.0176H125.906V79.2096H123.378V77.8176Z" fill="#A7ABC0"/>
<rect x="142" y="76.6143" width="84.3333" height="13.8067" rx="6.90337" fill="#A7ABC0" fill-opacity="0.22"/>
<rect x="238.333" y="76.6143" width="84.3333" height="13.8067" rx="6.90337" fill="#A7ABC0" fill-opacity="0.22"/>
<rect x="334.667" y="76.6143" width="84.3333" height="13.8067" rx="6.90337" fill="#A7ABC0" fill-opacity="0.22"/>
</g>
<g filter="url(#filter1_d_10_981)">
<rect x="37" y="164.018" width="406" height="73" rx="16" fill="white" shape-rendering="crispEdges"/>
<rect x="61" y="194.018" width="13" height="13" rx="6.5" fill="#F3D456"/>
<path d="M89.904 206.018V196.21H86.064V194.818H95.328V196.21H91.488V206.018H89.904ZM103.636 201.826C103.636 201.954 103.62 202.146 103.604 202.29H96.7236C96.9156 203.778 98.1156 204.77 99.7956 204.77C100.788 204.77 101.62 204.434 102.244 203.746L103.092 204.738C102.324 205.634 101.156 206.114 99.7476 206.114C97.0116 206.114 95.1876 204.306 95.1876 201.778C95.1876 199.266 96.9956 197.458 99.4436 197.458C101.892 197.458 103.636 199.218 103.636 201.826ZM99.4436 198.754C97.9716 198.754 96.8836 199.746 96.7236 201.186H102.164C102.004 199.762 100.932 198.754 99.4436 198.754ZM108.201 206.114C106.793 206.114 105.401 205.682 104.697 205.122L105.337 203.906C106.057 204.418 107.209 204.786 108.312 204.786C109.737 204.786 110.329 204.354 110.329 203.634C110.329 201.73 104.969 203.378 104.969 200.002C104.969 198.482 106.329 197.458 108.505 197.458C109.609 197.458 110.857 197.746 111.593 198.226L110.937 199.442C110.169 198.946 109.321 198.77 108.489 198.77C107.145 198.77 106.489 199.266 106.489 199.938C106.489 201.938 111.865 200.306 111.865 203.602C111.865 205.138 110.457 206.114 108.201 206.114ZM118.072 204.418L118.552 205.522C118.088 205.922 117.384 206.114 116.696 206.114C114.984 206.114 114.008 205.17 114.008 203.458V198.802H112.568V197.538H114.008V195.682H115.544V197.538H117.976V198.802H115.544V203.394C115.544 204.306 116.024 204.818 116.872 204.818C117.32 204.818 117.752 204.674 118.072 204.418ZM126.146 204.626H131.89V206.018H123.842V204.93L128.402 200.53C129.586 199.378 129.81 198.674 129.81 197.97C129.81 196.818 128.994 196.114 127.426 196.114C126.226 196.114 125.25 196.498 124.562 197.33L123.474 196.386C124.338 195.314 125.826 194.69 127.57 194.69C129.906 194.69 131.41 195.89 131.41 197.81C131.41 198.898 131.09 199.874 129.57 201.33L126.146 204.626Z" fill="#A7ABC0"/>
<rect x="145" y="193.614" width="83.3333" height="13.8067" rx="6.90337" fill="#A7ABC0" fill-opacity="0.22"/>
<rect x="240.333" y="193.614" width="83.3333" height="13.8067" rx="6.90337" fill="#A7ABC0" fill-opacity="0.22"/>
<rect x="335.667" y="193.614" width="83.3333" height="13.8067" rx="6.90337" fill="#A7ABC0" fill-opacity="0.22"/>
</g>
<g filter="url(#filter2_d_10_981)">
<rect x="37" y="281.018" width="406" height="73" rx="16" fill="white" shape-rendering="crispEdges"/>
<rect x="61" y="311.018" width="13" height="13" rx="6.5" fill="#66AC5C"/>
<path d="M89.904 323.018V313.21H86.064V311.818H95.328V313.21H91.488V323.018H89.904ZM103.636 318.826C103.636 318.954 103.62 319.146 103.604 319.29H96.7236C96.9156 320.778 98.1156 321.77 99.7956 321.77C100.788 321.77 101.62 321.434 102.244 320.746L103.092 321.738C102.324 322.634 101.156 323.114 99.7476 323.114C97.0116 323.114 95.1876 321.306 95.1876 318.778C95.1876 316.266 96.9956 314.458 99.4436 314.458C101.892 314.458 103.636 316.218 103.636 318.826ZM99.4436 315.754C97.9716 315.754 96.8836 316.746 96.7236 318.186H102.164C102.004 316.762 100.932 315.754 99.4436 315.754ZM108.201 323.114C106.793 323.114 105.401 322.682 104.697 322.122L105.337 320.906C106.057 321.418 107.209 321.786 108.312 321.786C109.737 321.786 110.329 321.354 110.329 320.634C110.329 318.73 104.969 320.378 104.969 317.002C104.969 315.482 106.329 314.458 108.505 314.458C109.609 314.458 110.857 314.746 111.593 315.226L110.937 316.442C110.169 315.946 109.321 315.77 108.489 315.77C107.145 315.77 106.489 316.266 106.489 316.938C106.489 318.938 111.865 317.306 111.865 320.602C111.865 322.138 110.457 323.114 108.201 323.114ZM118.072 321.418L118.552 322.522C118.088 322.922 117.384 323.114 116.696 323.114C114.984 323.114 114.008 322.17 114.008 320.458V315.802H112.568V314.538H114.008V312.682H115.544V314.538H117.976V315.802H115.544V320.394C115.544 321.306 116.024 321.818 116.872 321.818C117.32 321.818 117.752 321.674 118.072 321.418ZM128.306 316.522C130.546 316.73 131.682 317.994 131.682 319.722C131.682 321.61 130.29 323.146 127.442 323.146C125.842 323.146 124.274 322.634 123.33 321.786L124.066 320.522C124.818 321.226 126.066 321.722 127.442 321.722C129.122 321.722 130.082 320.954 130.082 319.738C130.082 318.554 129.234 317.786 127.314 317.786H126.418V316.666L129.234 313.21H123.842V311.818H131.234V312.906L128.306 316.522Z" fill="#A7ABC0"/>
<rect x="145" y="310.614" width="83.3333" height="13.8067" rx="6.90337" fill="#A7ABC0" fill-opacity="0.22"/>
<rect x="240.333" y="310.614" width="83.3333" height="13.8067" rx="6.90337" fill="#A7ABC0" fill-opacity="0.22"/>
<rect x="335.667" y="310.614" width="83.3333" height="13.8067" rx="6.90337" fill="#A7ABC0" fill-opacity="0.22"/>
</g>
<defs>
<filter id="filter0_d_10_981" x="15" y="37.0176" width="450" height="117" filterUnits="userSpaceOnUse" color-interpolation-filters="sRGB">
<feFlood flood-opacity="0" result="BackgroundImageFix"/>
<feColorMatrix in="SourceAlpha" type="matrix" values="0 0 0 0 0 0 0 0 0 0 0 0 0 0 0 0 0 0 127 0" result="hardAlpha"/>
<feOffset dy="12"/>
<feGaussianBlur stdDeviation="11"/>
<feComposite in2="hardAlpha" operator="out"/>
<feColorMatrix type="matrix" values="0 0 0 0 0 0 0 0 0 0 0 0 0 0 0 0 0 0 0.06 0"/>
<feBlend mode="normal" in2="BackgroundImageFix" result="effect1_dropShadow_10_981"/>
<feBlend mode="normal" in="SourceGraphic" in2="effect1_dropShadow_10_981" result="shape"/>
</filter>
<filter id="filter1_d_10_981" x="15" y="154.018" width="450" height="117" filterUnits="userSpaceOnUse" color-interpolation-filters="sRGB">
<feFlood flood-opacity="0" result="BackgroundImageFix"/>
<feColorMatrix in="SourceAlpha" type="matrix" values="0 0 0 0 0 0 0 0 0 0 0 0 0 0 0 0 0 0 127 0" result="hardAlpha"/>
<feOffset dy="12"/>
<feGaussianBlur stdDeviation="11"/>
<feComposite in2="hardAlpha" operator="out"/>
<feColorMatrix type="matrix" values="0 0 0 0 0 0 0 0 0 0 0 0 0 0 0 0 0 0 0.06 0"/>
<feBlend mode="normal" in2="BackgroundImageFix" result="effect1_dropShadow_10_981"/>
<feBlend mode="normal" in="SourceGraphic" in2="effect1_dropShadow_10_981" result="shape"/>
</filter>
<filter id="filter2_d_10_981" x="15" y="271.018" width="450" height="117" filterUnits="userSpaceOnUse" color-interpolation-filters="sRGB">
<feFlood flood-opacity="0" result="BackgroundImageFix"/>
<feColorMatrix in="SourceAlpha" type="matrix" values="0 0 0 0 0 0 0 0 0 0 0 0 0 0 0 0 0 0 127 0" result="hardAlpha"/>
<feOffset dy="12"/>
<feGaussianBlur stdDeviation="11"/>
<feComposite in2="hardAlpha" operator="out"/>
<feColorMatrix type="matrix" values="0 0 0 0 0 0 0 0 0 0 0 0 0 0 0 0 0 0 0.06 0"/>
<feBlend mode="normal" in2="BackgroundImageFix" result="effect1_dropShadow_10_981"/>
<feBlend mode="normal" in="SourceGraphic" in2="effect1_dropShadow_10_981" result="shape"/>
</filter>
</defs>
</svg>
