<svg width="550" height="471" viewBox="0 0 550 471" fill="none" xmlns="http://www.w3.org/2000/svg">
<rect y="0.517578" width="550" height="469.602" rx="24" fill="#3C278A"/>
<path fill-rule="evenodd" clip-rule="evenodd" d="M171.584 77.5936C171.845 78.1152 171.633 78.7495 171.112 79.0103L155.504 86.8142V102.705C155.504 103.288 155.031 103.761 154.448 103.761C153.865 103.761 153.392 103.288 153.392 102.705V85.509L170.167 77.1214C170.689 76.8606 171.323 77.072 171.584 77.5936Z" fill="white"/>
<path d="M147.609 84.7536C145.464 83.5259 145.464 81.0535 147.609 79.8259L166.851 68.8166C168.264 68.008 170.199 68.008 171.612 68.8166L190.853 79.8259C192.999 81.0535 192.999 83.5259 190.853 84.7536L171.612 95.7629C170.199 96.5714 168.264 96.5714 166.851 95.7629L147.609 84.7536Z" fill="#0069FF"/>
<path d="M157.968 92.5076V99.8892C157.968 101.056 158.913 102.001 160.08 102.001H178.383C179.549 102.001 180.495 101.056 180.495 99.8892V92.5076L171.612 97.8443C170.199 98.6933 168.264 98.6933 166.851 97.8443L157.968 92.5076Z" fill="white"/>
<path fill-rule="evenodd" clip-rule="evenodd" d="M164.208 82.543C164.583 83.224 164.335 84.0803 163.654 84.4556L163.633 84.4673C162.952 84.8426 162.096 84.5948 161.72 83.9138C161.345 83.2327 161.593 82.3764 162.274 82.0011L162.295 81.9894C162.976 81.6141 163.832 81.8619 164.208 82.543ZM159.95 84.8896C160.325 85.5706 160.077 86.4269 159.396 86.8022L159.375 86.8139C158.694 87.1892 157.838 86.9414 157.462 86.2604C157.087 85.5793 157.335 84.723 158.016 84.3477L158.037 84.336C158.718 83.9607 159.574 84.2085 159.95 84.8896ZM155.692 87.2362C156.067 87.9172 155.819 88.7735 155.138 89.1488L155.127 89.1547C154.446 89.53 153.59 89.2821 153.215 88.6011C152.84 87.9201 153.087 87.0638 153.768 86.6885L153.779 86.6826C154.46 86.3073 155.316 86.5551 155.692 87.2362Z" fill="white"/>
<path d="M169.231 84.4017C166.899 84.4017 165.007 82.5106 165.007 80.1778C165.007 77.845 166.899 75.9539 169.231 75.9539C171.564 75.9539 173.455 77.845 173.455 80.1778C173.455 82.5106 171.564 84.4017 169.231 84.4017Z" fill="white"/>
<path d="M171.343 80.1778C171.343 81.3442 170.398 82.2897 169.231 82.2897C168.065 82.2897 167.119 81.3442 167.119 80.1778C167.119 79.0114 168.065 78.0659 169.231 78.0659C170.398 78.0659 171.343 79.0114 171.343 80.1778Z" fill="#0069FF"/>
<path d="M154.448 110.449C152.115 110.449 150.224 108.558 150.224 106.225C150.224 103.892 152.115 102.001 154.448 102.001C156.781 102.001 158.672 103.892 158.672 106.225C158.672 108.558 156.781 110.449 154.448 110.449Z" fill="#0069FF"/>
<path d="M156.56 106.225C156.56 107.391 155.614 108.337 154.448 108.337C153.281 108.337 152.336 107.391 152.336 106.225C152.336 105.059 153.281 104.113 154.448 104.113C155.614 104.113 156.56 105.059 156.56 106.225Z" fill="white"/>
<path d="M222.324 72.7791L220.577 76.1822C220.35 76.6359 220.169 76.9308 220.033 77.0669C219.896 77.1879 219.707 77.2484 219.465 77.2484C219.329 77.2484 218.505 76.8325 216.993 76.0007C216.448 75.7133 215.639 75.5696 214.565 75.5696C213.431 75.5696 212.546 75.8797 211.911 76.4998C211.381 77.0291 211.117 77.619 211.117 78.2694C211.117 78.8743 211.359 79.381 211.843 79.7894C212.296 80.1675 212.765 80.4548 213.249 80.6515C213.733 80.8481 214.875 81.2111 216.675 81.7404C219.231 82.4967 221.114 83.5251 222.324 84.8258C223.625 86.2324 224.275 88.1003 224.275 90.4295C224.275 93.9838 223.216 96.6759 221.099 98.506C218.83 100.442 215.851 101.41 212.16 101.41C210.527 101.41 208.765 101.13 206.874 100.57C204.999 99.9958 203.441 99.2773 202.201 98.4152C201.868 98.1884 201.702 97.9086 201.702 97.5758C201.702 97.4397 201.838 97.1145 202.11 96.6003L204.061 92.9477C204.303 92.494 204.485 92.2066 204.606 92.0856C204.742 91.9646 204.931 91.9041 205.173 91.9041C205.324 91.9041 205.483 91.9571 205.649 92.0629C205.816 92.1688 206.345 92.5318 207.237 93.1519C208.583 94.0896 210.179 94.5585 212.024 94.5585C213.416 94.5585 214.437 94.1879 215.087 93.4468C215.601 92.857 215.858 92.2293 215.858 91.5638C215.858 90.7017 215.525 90.0287 214.86 89.5447C214.195 89.0456 212.916 88.5162 211.026 87.9566C208.062 87.0945 206.095 86.2627 205.127 85.4611C203.494 84.115 202.677 82.0732 202.677 79.3356C202.677 76.099 203.743 73.5051 205.876 71.5541C207.812 69.7694 210.209 68.877 213.068 68.877C214.565 68.877 216.199 69.0812 217.968 69.4896C219.753 69.8979 221.174 70.3895 222.233 70.9642C222.566 71.1608 222.732 71.4255 222.732 71.7582C222.732 71.9246 222.596 72.2649 222.324 72.7791Z" fill="white"/>
<path d="M237.229 85.7333V99.0505C237.229 99.7311 237.138 100.162 236.957 100.344C236.791 100.51 236.367 100.593 235.686 100.593H231.331C230.65 100.593 230.219 100.51 230.037 100.344C229.871 100.162 229.788 99.7311 229.788 99.0505V85.7333H228.88C228.2 85.7333 227.769 85.6501 227.587 85.4838C227.421 85.3023 227.338 84.8712 227.338 84.1906V81.0825C227.338 80.4019 227.421 79.9784 227.587 79.8121C227.769 79.6306 228.2 79.5398 228.88 79.5398H229.788V74.7529C229.788 74.0723 229.871 73.6488 230.037 73.4824C230.219 73.3009 230.65 73.2102 231.331 73.2102H235.686C236.367 73.2102 236.791 73.3009 236.957 73.4824C237.138 73.6488 237.229 74.0723 237.229 74.7529V79.5398H239.929C240.61 79.5398 241.033 79.6306 241.199 79.8121C241.381 79.9784 241.472 80.4019 241.472 81.0825V84.1906C241.472 84.8712 241.381 85.3023 241.199 85.4838C241.033 85.6501 240.61 85.7333 239.929 85.7333H237.229Z" fill="white"/>
<path d="M251.703 81.0825V91.4731C251.703 94.0745 252.966 95.3752 255.492 95.3752C258.003 95.3752 259.258 94.0745 259.258 91.4731V81.0825C259.258 80.4019 259.341 79.9784 259.508 79.8121C259.689 79.6306 260.12 79.5398 260.801 79.5398H265.157C265.837 79.5398 266.261 79.6306 266.427 79.8121C266.609 79.9784 266.699 80.4019 266.699 81.0825V92.9023C266.699 95.4281 265.92 97.4019 264.363 98.8236C262.396 100.608 259.44 101.501 255.492 101.501C251.529 101.501 248.565 100.608 246.599 98.8236C245.041 97.4019 244.262 95.4281 244.262 92.9023V81.0825C244.262 80.4019 244.345 79.9784 244.512 79.8121C244.693 79.6306 245.124 79.5398 245.805 79.5398H250.161C250.841 79.5398 251.265 79.6306 251.431 79.8121C251.613 79.9784 251.703 80.4019 251.703 81.0825Z" fill="white"/>
<path d="M288.048 98.2564C286.444 100.268 284.282 101.274 281.559 101.274C279.79 101.274 278.096 100.828 276.477 99.9353C274.708 98.937 273.331 97.5683 272.348 95.8289C271.396 94.135 270.919 92.1991 270.919 90.0211C270.919 86.4366 272.167 83.5705 274.662 81.4228C276.644 79.7137 278.92 78.8592 281.491 78.8592C282.852 78.8592 284.055 79.0785 285.098 79.5171C286.142 79.9557 287.125 80.6515 288.048 81.6043V68.0603C288.048 67.3797 288.131 66.9562 288.297 66.7898C288.479 66.6083 288.91 66.5176 289.59 66.5176H293.946C294.627 66.5176 295.05 66.6083 295.217 66.7898C295.398 66.9562 295.489 67.3797 295.489 68.0603V99.0505C295.489 99.7311 295.398 100.162 295.217 100.344C295.05 100.51 294.627 100.593 293.946 100.593H289.59C288.91 100.593 288.479 100.51 288.297 100.344C288.131 100.162 288.048 99.7311 288.048 99.0505V98.2564ZM283.465 85.2796C282.134 85.2796 281 85.7484 280.062 86.6862C279.124 87.6239 278.655 88.7658 278.655 90.1119C278.655 91.3823 279.124 92.494 280.062 93.4468C280.984 94.3846 282.119 94.8534 283.465 94.8534C284.796 94.8534 285.93 94.3846 286.868 93.4468C287.806 92.5091 288.275 91.3823 288.275 90.0665C288.275 88.7204 287.806 87.5936 286.868 86.6862C285.9 85.7484 284.766 85.2796 283.465 85.2796Z" fill="white"/>
<path d="M308.194 97.712L299.119 81.4682C298.831 80.9691 298.688 80.6137 298.688 80.4019C298.688 80.0843 298.801 79.865 299.028 79.744C299.255 79.6079 299.656 79.5398 300.23 79.5398H305.494C306.099 79.5398 306.469 79.5852 306.605 79.6759C306.742 79.7516 306.946 80.054 307.218 80.5834L312.3 90.3387L317.246 80.6061C317.518 80.0616 317.722 79.7516 317.858 79.6759C317.994 79.5852 318.365 79.5398 318.97 79.5398H324.12C324.694 79.5398 325.095 79.6079 325.322 79.744C325.549 79.865 325.662 80.0843 325.662 80.4019C325.662 80.6137 325.534 80.9615 325.277 81.4455L309.94 110.076C309.668 110.606 309.456 110.908 309.305 110.984C309.169 111.074 308.806 111.12 308.216 111.12H303.202C302.658 111.12 302.303 111.082 302.136 111.006C301.819 110.855 301.66 110.606 301.66 110.258C301.66 110.061 301.796 109.713 302.068 109.214L308.194 97.712Z" fill="white"/>
<path d="M344.81 71.1684V91.042C344.81 93.1595 344.545 94.7702 344.016 95.8743C343.093 97.7498 341.687 99.1942 339.796 100.208C338.254 101.024 336.552 101.433 334.692 101.433C331.863 101.433 329.519 100.381 327.659 98.2791C327.145 97.6893 326.887 97.2507 326.887 96.9633C326.887 96.7062 327.122 96.3356 327.591 95.8516L330.404 92.9704C330.873 92.4864 331.236 92.2444 331.493 92.2444C331.72 92.2444 331.984 92.494 332.287 92.9931C332.877 94.0064 333.61 94.5131 334.488 94.5131C336.015 94.5131 336.779 93.3183 336.779 90.9286L336.756 89.2044V71.1684C336.756 70.4878 336.839 70.0643 337.006 69.8979C337.187 69.7164 337.618 69.6257 338.299 69.6257H343.267C343.948 69.6257 344.371 69.7164 344.538 69.8979C344.719 70.0643 344.81 70.4878 344.81 71.1684Z" fill="#0069FF"/>
<path d="M366.907 98.2564C365.319 100.268 363.156 101.274 360.419 101.274C358.649 101.274 356.963 100.828 355.359 99.9353C353.575 98.937 352.191 97.5683 351.208 95.8289C350.255 94.135 349.779 92.1991 349.779 90.0211C349.779 86.4366 351.026 83.5705 353.522 81.4228C355.503 79.7137 357.779 78.8592 360.351 78.8592C361.712 78.8592 362.914 79.0785 363.958 79.5171C365.016 79.9557 366 80.6515 366.907 81.6043V81.0825C366.907 80.4019 366.998 79.9784 367.179 79.8121C367.361 79.6306 367.792 79.5398 368.472 79.5398H372.806C373.486 79.5398 373.91 79.6306 374.076 79.8121C374.258 79.9784 374.348 80.4019 374.348 81.0825V99.0505C374.348 99.7311 374.258 100.162 374.076 100.344C373.91 100.51 373.486 100.593 372.806 100.593H368.472C367.792 100.593 367.361 100.51 367.179 100.344C366.998 100.162 366.907 99.7311 366.907 99.0505V98.2564ZM362.324 85.2796C360.993 85.2796 359.859 85.7484 358.921 86.6862C357.984 87.6239 357.515 88.7658 357.515 90.1119C357.515 91.3823 357.984 92.494 358.921 93.4468C359.844 94.3846 360.978 94.8534 362.324 94.8534C363.655 94.8534 364.79 94.3846 365.727 93.4468C366.665 92.5091 367.134 91.3823 367.134 90.0665C367.134 88.7204 366.665 87.5936 365.727 86.6862C364.759 85.7484 363.625 85.2796 362.324 85.2796Z" fill="#0069FF"/>
<path d="M386.871 81.6043C387.673 80.7725 388.452 80.175 389.208 79.8121C390.509 79.1768 391.915 78.8592 393.428 78.8592C396.513 78.8592 399.107 80.0238 401.21 82.353C403.07 84.4099 404 86.966 404 90.0211C404 93.5754 402.782 96.4264 400.347 98.5741C398.306 100.374 395.976 101.274 393.36 101.274C390.637 101.274 388.475 100.268 386.871 98.2564V99.0505C386.871 99.7311 386.781 100.162 386.599 100.344C386.433 100.51 386.009 100.593 385.329 100.593H380.973C380.292 100.593 379.861 100.51 379.68 100.344C379.513 100.162 379.43 99.7311 379.43 99.0505V68.0603C379.43 67.3797 379.513 66.9562 379.68 66.7898C379.861 66.6083 380.292 66.5176 380.973 66.5176H385.329C386.009 66.5176 386.433 66.6083 386.599 66.7898C386.781 66.9562 386.871 67.3797 386.871 68.0603V81.6043ZM391.477 85.2796C390.146 85.2796 389.004 85.7484 388.051 86.6862C387.113 87.6239 386.645 88.7507 386.645 90.0665C386.645 91.3823 387.113 92.5091 388.051 93.4468C388.989 94.3846 390.123 94.8534 391.454 94.8534C392.8 94.8534 393.935 94.3846 394.857 93.4468C395.795 92.494 396.264 91.3445 396.264 89.9984C396.264 88.7128 395.787 87.6088 394.835 86.6862C393.897 85.7484 392.778 85.2796 391.477 85.2796Z" fill="#0069FF"/>
<rect x="54" y="199.12" width="442" height="66" rx="33" fill="white"/>
<path d="M54 232.12C54 213.894 68.7746 199.12 87 199.12H270V265.12H87C68.7746 265.12 54 250.345 54 232.12Z" fill="#0A2354"/>
<path d="M109.339 225.52C112.651 225.52 114.703 227.212 114.703 230.002C114.703 232.774 112.651 234.484 109.339 234.484H106.495V238.12H104.155V225.52H109.339ZM109.231 232.504C111.283 232.504 112.345 231.586 112.345 230.002C112.345 228.418 111.283 227.5 109.231 227.5H106.495V232.504H109.231ZM118.878 229.912C119.526 228.904 120.696 228.4 122.298 228.4V230.542C122.1 230.506 121.938 230.488 121.776 230.488C120.066 230.488 118.986 231.496 118.986 233.458V238.12H116.736V228.508H118.878V229.912ZM127.826 228.4C130.598 228.4 132.2 229.714 132.2 232.486V238.12H130.076V236.95C129.536 237.778 128.492 238.246 127.052 238.246C124.856 238.246 123.47 237.04 123.47 235.366C123.47 233.764 124.55 232.504 127.466 232.504H129.95V232.36C129.95 231.046 129.158 230.272 127.556 230.272C126.476 230.272 125.36 230.632 124.64 231.226L123.758 229.588C124.784 228.796 126.278 228.4 127.826 228.4ZM127.52 236.608C128.618 236.608 129.572 236.104 129.95 235.114V233.998H127.628C126.098 233.998 125.684 234.574 125.684 235.276C125.684 236.086 126.368 236.608 127.52 236.608ZM139.585 238.246C136.543 238.246 134.383 236.194 134.383 233.314C134.383 230.434 136.543 228.4 139.585 228.4C141.457 228.4 142.951 229.174 143.689 230.632L141.961 231.64C141.385 230.722 140.521 230.308 139.567 230.308C137.911 230.308 136.651 231.46 136.651 233.314C136.651 235.186 137.911 236.32 139.567 236.32C140.521 236.32 141.385 235.906 141.961 234.988L143.689 235.996C142.951 237.436 141.457 238.246 139.585 238.246ZM150.905 235.996L151.535 237.598C150.995 238.03 150.185 238.246 149.375 238.246C147.269 238.246 146.063 237.13 146.063 235.006V230.38H144.479V228.58H146.063V226.384H148.313V228.58H150.887V230.38H148.313V234.952C148.313 235.888 148.781 236.392 149.645 236.392C150.113 236.392 150.563 236.266 150.905 235.996ZM154.52 226.924C153.692 226.924 153.08 226.33 153.08 225.574C153.08 224.818 153.692 224.224 154.52 224.224C155.348 224.224 155.96 224.782 155.96 225.52C155.96 226.312 155.366 226.924 154.52 226.924ZM153.386 238.12V228.508H155.636V238.12H153.386ZM162.999 238.246C159.957 238.246 157.797 236.194 157.797 233.314C157.797 230.434 159.957 228.4 162.999 228.4C164.871 228.4 166.365 229.174 167.103 230.632L165.375 231.64C164.799 230.722 163.935 230.308 162.981 230.308C161.325 230.308 160.065 231.46 160.065 233.314C160.065 235.186 161.325 236.32 162.981 236.32C163.935 236.32 164.799 235.906 165.375 234.988L167.103 235.996C166.365 237.436 164.871 238.246 162.999 238.246ZM177.944 233.368C177.944 233.548 177.926 233.818 177.908 234.034H170.366C170.636 235.438 171.806 236.338 173.48 236.338C174.56 236.338 175.406 235.996 176.09 235.294L177.296 236.68C176.432 237.706 175.082 238.246 173.426 238.246C170.204 238.246 168.116 236.176 168.116 233.314C168.116 230.452 170.222 228.4 173.084 228.4C175.892 228.4 177.944 230.362 177.944 233.368ZM173.084 230.2C171.626 230.2 170.564 231.136 170.348 232.54H175.802C175.622 231.154 174.56 230.2 173.084 230.2ZM187.852 238.12V227.5H183.676V225.52H194.368V227.5H190.192V238.12H187.852ZM203.959 233.368C203.959 233.548 203.941 233.818 203.923 234.034H196.381C196.651 235.438 197.821 236.338 199.495 236.338C200.575 236.338 201.421 235.996 202.105 235.294L203.311 236.68C202.447 237.706 201.097 238.246 199.441 238.246C196.219 238.246 194.131 236.176 194.131 233.314C194.131 230.452 196.237 228.4 199.099 228.4C201.907 228.4 203.959 230.362 203.959 233.368ZM199.099 230.2C197.641 230.2 196.579 231.136 196.363 232.54H201.817C201.637 231.154 200.575 230.2 199.099 230.2ZM209.091 238.246C207.489 238.246 205.887 237.778 205.023 237.166L205.887 235.456C206.733 236.014 208.029 236.41 209.235 236.41C210.657 236.41 211.251 236.014 211.251 235.348C211.251 233.512 205.311 235.24 205.311 231.406C205.311 229.588 206.949 228.4 209.541 228.4C210.819 228.4 212.277 228.706 213.141 229.228L212.277 230.938C211.359 230.398 210.441 230.218 209.523 230.218C208.155 230.218 207.507 230.668 207.507 231.298C207.507 233.242 213.447 231.514 213.447 235.276C213.447 237.076 211.791 238.246 209.091 238.246ZM220.532 235.996L221.162 237.598C220.622 238.03 219.812 238.246 219.002 238.246C216.896 238.246 215.69 237.13 215.69 235.006V230.38H214.106V228.58H215.69V226.384H217.94V228.58H220.514V230.38H217.94V234.952C217.94 235.888 218.408 236.392 219.272 236.392C219.74 236.392 220.19 236.266 220.532 235.996Z" fill="white"/>
<path d="M304.53 236.158H311.64V238.12H302.19V225.52H311.388V227.482H304.53V230.758H310.614V232.684H304.53V236.158ZM320.75 228.508H322.91L318.788 238.12H316.466L312.344 228.508H314.684L317.672 235.636L320.75 228.508ZM327.689 228.4C330.461 228.4 332.063 229.714 332.063 232.486V238.12H329.939V236.95C329.399 237.778 328.355 238.246 326.915 238.246C324.719 238.246 323.333 237.04 323.333 235.366C323.333 233.764 324.413 232.504 327.329 232.504H329.813V232.36C329.813 231.046 329.021 230.272 327.419 230.272C326.339 230.272 325.223 230.632 324.503 231.226L323.621 229.588C324.647 228.796 326.141 228.4 327.689 228.4ZM327.383 236.608C328.481 236.608 329.435 236.104 329.813 235.114V233.998H327.491C325.961 233.998 325.547 234.574 325.547 235.276C325.547 236.086 326.231 236.608 327.383 236.608ZM334.951 238.12V224.764H337.201V238.12H334.951ZM347.21 228.508H349.46V238.12H347.318V236.896C346.598 237.778 345.464 238.246 344.222 238.246C341.756 238.246 340.082 236.896 340.082 233.998V228.508H342.332V233.692C342.332 235.438 343.16 236.266 344.582 236.266C346.148 236.266 347.21 235.294 347.21 233.368V228.508ZM356.078 228.4C358.85 228.4 360.452 229.714 360.452 232.486V238.12H358.328V236.95C357.788 237.778 356.744 238.246 355.304 238.246C353.108 238.246 351.722 237.04 351.722 235.366C351.722 233.764 352.802 232.504 355.718 232.504H358.202V232.36C358.202 231.046 357.41 230.272 355.808 230.272C354.728 230.272 353.612 230.632 352.892 231.226L352.01 229.588C353.036 228.796 354.53 228.4 356.078 228.4ZM355.772 236.608C356.87 236.608 357.824 236.104 358.202 235.114V233.998H355.88C354.35 233.998 353.936 234.574 353.936 235.276C353.936 236.086 354.62 236.608 355.772 236.608ZM368.487 235.996L369.117 237.598C368.577 238.03 367.767 238.246 366.957 238.246C364.851 238.246 363.645 237.13 363.645 235.006V230.38H362.061V228.58H363.645V226.384H365.895V228.58H368.469V230.38H365.895V234.952C365.895 235.888 366.363 236.392 367.227 236.392C367.695 236.392 368.145 236.266 368.487 235.996ZM372.102 226.924C371.274 226.924 370.662 226.33 370.662 225.574C370.662 224.818 371.274 224.224 372.102 224.224C372.93 224.224 373.542 224.782 373.542 225.52C373.542 226.312 372.948 226.924 372.102 226.924ZM370.968 238.12V228.508H373.218V238.12H370.968ZM380.491 238.246C377.539 238.246 375.379 236.194 375.379 233.314C375.379 230.434 377.539 228.4 380.491 228.4C383.479 228.4 385.621 230.434 385.621 233.314C385.621 236.194 383.479 238.246 380.491 238.246ZM380.491 236.32C382.129 236.32 383.353 235.15 383.353 233.314C383.353 231.478 382.129 230.308 380.491 230.308C378.871 230.308 377.647 231.478 377.647 233.314C377.647 235.15 378.871 236.32 380.491 236.32ZM393.227 228.4C395.531 228.4 397.241 229.714 397.241 232.612V238.12H394.991V232.9C394.991 231.19 394.145 230.362 392.705 230.362C391.103 230.362 390.023 231.334 390.023 233.26V238.12H387.773V228.508H389.915V229.75C390.653 228.868 391.823 228.4 393.227 228.4ZM407.626 236.158H414.736V238.12H405.286V225.52H414.484V227.482H407.626V230.758H413.71V232.684H407.626V236.158ZM425.611 238.12H423.073L420.607 234.79L418.123 238.12H415.639L419.383 233.242L415.801 228.508H418.303L420.661 231.658L423.019 228.508H425.449L421.849 233.206L425.611 238.12ZM430.767 228.4C433.539 228.4 435.141 229.714 435.141 232.486V238.12H433.017V236.95C432.477 237.778 431.433 238.246 429.993 238.246C427.797 238.246 426.411 237.04 426.411 235.366C426.411 233.764 427.491 232.504 430.407 232.504H432.891V232.36C432.891 231.046 432.099 230.272 430.497 230.272C429.417 230.272 428.301 230.632 427.581 231.226L426.699 229.588C427.725 228.796 429.219 228.4 430.767 228.4ZM430.461 236.608C431.559 236.608 432.513 236.104 432.891 235.114V233.998H430.569C429.039 233.998 428.625 234.574 428.625 235.276C428.625 236.086 429.309 236.608 430.461 236.608ZM450.161 228.4C452.483 228.4 454.103 229.714 454.103 232.612V238.12H451.853V232.9C451.853 231.19 451.061 230.362 449.693 230.362C448.217 230.362 447.191 231.334 447.191 233.242V238.12H444.941V232.9C444.941 231.19 444.149 230.362 442.781 230.362C441.287 230.362 440.279 231.334 440.279 233.242V238.12H438.029V228.508H440.171V229.732C440.891 228.868 442.007 228.4 443.321 228.4C444.725 228.4 445.895 228.922 446.561 230.002C447.335 229.012 448.631 228.4 450.161 228.4Z" fill="#ABBCD3"/>
<path d="M212.271 400.029L196.588 379.517V399.973H189.562V367.748H196.138L211.315 387.643V367.804H218.341V400.085L212.271 400.029Z" fill="#00769C"/>
<path d="M237.003 400.646C227.503 400.646 220.421 393.304 220.421 384.001V383.888C220.421 374.697 227.391 367.131 237.34 367.131C243.467 367.131 247.12 369.149 250.156 372.063L245.546 377.331C243.073 375.09 240.488 373.745 237.227 373.745C231.775 373.745 227.841 378.284 227.841 383.832V383.945C227.841 389.493 231.663 394.088 237.227 394.088C240.937 394.088 243.186 392.631 245.771 390.278L250.324 394.873C247.008 398.404 243.242 400.646 237.003 400.646Z" fill="white"/>
<path d="M252.516 400.029V367.748H259.655V393.584H275.787V400.029C275.731 400.029 252.516 400.029 252.516 400.029Z" fill="white"/>
<path d="M278.148 400.029V367.748H302.599V374.024H285.23V380.582H300.463V386.859H285.23V393.64H302.824V399.917H278.204L278.148 400.029Z" fill="white"/>
<path d="M335.256 367.804H326.488L319.742 377.499L324.183 383.888L319.742 390.277L326.488 400.029H335.256L324.183 383.888L335.256 367.804Z" fill="white"/>
<path d="M335.256 367.804H326.488L319.742 377.499L324.183 383.888L319.742 390.277L326.488 400.029H335.256L324.183 383.888L335.256 367.804Z" fill="white"/>
<path d="M319.742 377.499L313.11 367.804H304.285L315.471 383.888L304.285 400.029H313.11L319.742 390.277L324.183 383.888L319.742 377.499Z" fill="#F36F3A"/>
<path d="M195.857 364.217L191.473 358.501V364.105H189.562V355.25H191.417L195.576 360.742V355.25H197.488V364.161H195.857V364.217Z" fill="#A8B1A4"/>
<path d="M206.031 361.415H201.31C201.535 362.255 202.097 362.76 202.94 362.76C203.614 362.76 204.008 362.535 204.57 362.031L205.638 362.984C204.963 363.768 204.064 364.273 202.827 364.273C200.748 364.273 199.23 362.816 199.23 360.742V360.686C199.23 358.725 200.635 357.155 202.603 357.155C204.851 357.155 205.919 358.949 205.919 360.854V360.91C206.144 361.078 206.031 361.246 206.031 361.415ZM202.771 358.781C201.984 358.781 201.478 359.341 201.31 360.238H204.289C204.064 359.397 203.614 358.781 202.771 358.781Z" fill="#A8B1A4"/>
<path d="M211.933 364.217L210.584 362.087L209.235 364.217H207.212L209.629 360.742L207.324 357.379H209.404L210.697 359.397L211.989 357.435H214.013L211.708 360.686L214.125 364.161L211.933 364.217Z" fill="#A8B1A4"/>
<path d="M218.341 364.273C217.161 364.273 216.374 363.825 216.374 362.199V359.005H215.587V357.323H216.374V355.642H218.285V357.435H219.915V359.061H218.341V362.031C218.341 362.479 218.566 362.704 218.959 362.704C219.353 362.704 219.634 362.592 219.915 362.479V364.049C219.465 364.161 218.903 364.273 218.341 364.273Z" fill="#A8B1A4"/>
<path d="M230.201 364.329C227.447 364.329 225.536 362.367 225.536 359.733V359.677C225.536 357.155 227.503 355.082 230.201 355.082C231.775 355.082 232.787 355.53 233.686 356.315L232.45 357.828C231.719 357.267 231.157 356.875 230.145 356.875C228.74 356.875 227.559 358.164 227.559 359.621V359.677C227.559 361.246 228.627 362.479 230.257 362.479C230.988 362.479 231.606 362.255 232.112 361.919V360.63H230.145V359.061H234.023V362.928C233.068 363.656 231.775 364.329 230.201 364.329Z" fill="#A8B1A4"/>
<path d="M242.961 361.415H238.183C238.408 362.255 238.97 362.76 239.813 362.76C240.488 362.76 240.881 362.535 241.443 362.031L242.511 362.984C241.837 363.768 240.937 364.273 239.757 364.273C237.677 364.273 236.159 362.816 236.159 360.742V360.686C236.159 358.725 237.565 357.155 239.532 357.155C241.78 357.155 242.848 358.949 242.848 360.854V360.966C242.961 361.078 242.961 361.246 242.961 361.415ZM239.588 358.781C238.801 358.781 238.295 359.341 238.127 360.238H241.106C240.937 359.397 240.431 358.781 239.588 358.781Z" fill="#A8B1A4"/>
<path d="M249.481 364.217V360.406C249.481 359.453 249.031 359.005 248.301 359.005C247.57 359.005 247.064 359.453 247.064 360.406V364.217H245.153V357.38H247.064V358.332C247.514 357.772 248.076 357.268 249.087 357.268C250.549 357.268 251.392 358.22 251.392 359.79V364.217H249.481Z" fill="#A8B1A4"/>
<path d="M260.217 361.415H255.439C255.664 362.255 256.226 362.76 257.069 362.76C257.744 362.76 258.137 362.535 258.699 362.031L259.767 362.984C259.093 363.768 258.193 364.273 257.013 364.273C254.933 364.273 253.416 362.816 253.416 360.742V360.686C253.416 358.725 254.821 357.155 256.788 357.155C259.036 357.155 260.104 358.949 260.104 360.854V360.966C260.273 361.078 260.217 361.246 260.217 361.415ZM256.9 358.781C256.114 358.781 255.608 359.341 255.439 360.238H258.418C258.25 359.397 257.687 358.781 256.9 358.781Z" fill="#A8B1A4"/>
<path d="M266.512 359.229C265.22 359.229 264.433 359.958 264.433 361.639V364.161H262.521V357.38H264.433V358.725C264.882 357.772 265.444 357.155 266.569 357.212V359.229H266.512Z" fill="#A8B1A4"/>
<path d="M272.527 364.217V363.488C272.077 363.992 271.459 364.329 270.447 364.329C269.154 364.329 268.142 363.6 268.142 362.255V362.199C268.142 360.686 269.21 360.069 270.897 360.069C271.627 360.069 272.077 360.181 272.527 360.35V360.238C272.527 359.453 272.021 358.949 271.065 358.949C270.334 358.949 269.772 359.117 269.21 359.341L268.761 357.884C269.491 357.491 270.278 357.323 271.459 357.323C273.595 357.323 274.494 358.388 274.494 360.294V364.273L272.527 364.217ZM272.583 361.414C272.189 361.246 271.852 361.19 271.346 361.19C270.559 361.19 269.997 361.583 269.997 362.143V362.255C269.997 362.76 270.447 363.04 271.065 363.04C272.021 363.04 272.583 362.535 272.583 361.807V361.414Z" fill="#A8B1A4"/>
<path d="M279.159 364.273C277.979 364.273 277.192 363.825 277.192 362.199V359.005H276.405V357.323H277.192V355.642H279.103V357.435H280.677V359.061H279.103V362.031C279.103 362.479 279.328 362.704 279.721 362.704C280.115 362.704 280.396 362.592 280.677 362.479V364.049C280.34 364.161 279.778 364.273 279.159 364.273Z" fill="#A8B1A4"/>
<path d="M282.925 356.595V354.914H284.949V356.651L282.925 356.595ZM282.981 364.217V357.38H284.893V364.161L282.981 364.217Z" fill="#A8B1A4"/>
<path d="M290.682 364.329C288.546 364.329 286.972 362.76 286.972 360.798V360.742C286.972 358.781 288.546 357.211 290.682 357.211C292.818 357.211 294.392 358.781 294.392 360.742V360.798C294.336 362.76 292.818 364.329 290.682 364.329ZM292.481 360.742C292.481 359.733 291.75 358.893 290.626 358.893C289.502 358.893 288.827 359.733 288.827 360.742V360.798C288.827 361.807 289.558 362.648 290.682 362.648C291.806 362.592 292.481 361.807 292.481 360.742Z" fill="#A8B1A4"/>
<path d="M300.631 364.217V360.406C300.631 359.453 300.182 359.005 299.451 359.005C298.72 359.005 298.214 359.453 298.214 360.406V364.217H296.303V357.38H298.214V358.332C298.664 357.772 299.226 357.268 300.238 357.268C301.699 357.268 302.542 358.22 302.542 359.79V364.217H300.631Z" fill="#A8B1A4"/>
<path d="M339.528 367.58C337.954 367.58 336.774 368.869 336.774 370.326C336.774 371.783 338.01 373.016 339.472 373.016C341.046 373.016 342.226 371.727 342.226 370.27C342.282 368.813 341.046 367.58 339.528 367.58ZM339.528 372.68C338.235 372.68 337.223 371.615 337.223 370.382C337.223 369.093 338.235 368.084 339.528 368.084C340.821 368.084 341.833 369.149 341.833 370.382C341.833 371.615 340.765 372.68 339.528 372.68Z" fill="white"/>
<path d="M340.708 369.821C340.708 369.261 340.259 368.869 339.64 368.869H338.348V371.615H338.966V370.662H339.472L340.09 371.615H340.821L340.09 370.606C340.484 370.55 340.708 370.214 340.708 369.821ZM339.64 370.214H339.022V369.429H339.64C339.922 369.429 340.146 369.597 340.146 369.877C340.146 370.158 339.922 370.214 339.64 370.214Z" fill="white"/>
</svg>
