<svg width="480" height="401" viewBox="0 0 480 401" fill="none" xmlns="http://www.w3.org/2000/svg">
<rect y="0.517578" width="480" height="400" rx="24" fill="#EEF2FF"/>
<g filter="url(#filter0_d_10_1032)">
<rect x="61" y="104.822" width="358" height="191.391" rx="12" fill="white" fill-opacity="0.44" shape-rendering="crispEdges"/>
<rect width="310" height="14.969" rx="7.4845" transform="matrix(-1 0 -4.6778e-08 1 395 128.822)" fill="#A7ABC0" fill-opacity="0.12"/>
<rect width="198" height="15" rx="7.5" transform="matrix(-1 0 -4.6778e-08 1 283 155.018)" fill="#A7ABC0" fill-opacity="0.12"/>
<rect width="310" height="14.969" rx="7.4845" transform="matrix(-1 0 -4.6778e-08 1 395 181.244)" fill="#A7ABC0" fill-opacity="0.12"/>
<rect x="85" y="220.213" width="153" height="52" rx="8" fill="#5670C6" fill-opacity="0.44"/>
<path d="M136.168 235.383H137.463L138.375 236.572L138.805 237.101L140.259 238.997H138.912L137.94 237.731L137.608 237.271L136.168 235.383ZM140.54 233.849C140.54 234.781 140.369 235.582 140.028 236.253C139.688 236.92 139.22 237.434 138.626 237.795C138.036 238.153 137.364 238.332 136.611 238.332C135.855 238.332 135.18 238.153 134.587 237.795C133.996 237.434 133.53 236.919 133.189 236.248C132.848 235.578 132.678 234.778 132.678 233.849C132.678 232.917 132.848 232.118 133.189 231.45C133.53 230.78 133.996 230.265 134.587 229.907C135.18 229.547 135.855 229.366 136.611 229.366C137.364 229.366 138.036 229.547 138.626 229.907C139.22 230.265 139.688 230.78 140.028 231.45C140.369 232.118 140.54 232.917 140.54 233.849ZM139.236 233.849C139.236 233.139 139.121 232.541 138.891 232.055C138.663 231.567 138.351 231.197 137.953 230.947C137.558 230.694 137.111 230.568 136.611 230.568C136.108 230.568 135.659 230.694 135.264 230.947C134.869 231.197 134.557 231.567 134.327 232.055C134.099 232.541 133.986 233.139 133.986 233.849C133.986 234.559 134.099 235.159 134.327 235.648C134.557 236.133 134.869 236.503 135.264 236.756C135.659 237.006 136.108 237.131 136.611 237.131C137.111 237.131 137.558 237.006 137.953 236.756C138.351 236.503 138.663 236.133 138.891 235.648C139.121 235.159 139.236 234.559 139.236 233.849ZM146.225 235.498V231.667H147.504V238.213H146.251V237.079H146.183C146.032 237.429 145.791 237.72 145.458 237.953C145.129 238.183 144.718 238.298 144.227 238.298C143.806 238.298 143.434 238.206 143.11 238.021C142.789 237.834 142.537 237.557 142.352 237.19C142.17 236.824 142.079 236.371 142.079 235.831V231.667H143.353V235.677C143.353 236.123 143.477 236.479 143.724 236.743C143.971 237.007 144.292 237.139 144.687 237.139C144.926 237.139 145.163 237.079 145.399 236.96C145.637 236.841 145.835 236.66 145.991 236.419C146.15 236.177 146.228 235.871 146.225 235.498ZM152.037 238.345C151.392 238.345 150.837 238.207 150.371 237.932C149.908 237.653 149.55 237.263 149.297 236.76C149.047 236.254 148.922 235.662 148.922 234.983C148.922 234.312 149.047 233.721 149.297 233.21C149.55 232.699 149.902 232.3 150.354 232.013C150.808 231.726 151.339 231.582 151.947 231.582C152.317 231.582 152.675 231.643 153.021 231.765C153.368 231.888 153.679 232.079 153.955 232.341C154.23 232.602 154.447 232.942 154.607 233.359C154.766 233.774 154.845 234.278 154.845 234.872V235.324H149.642V234.369H153.597C153.597 234.034 153.528 233.737 153.392 233.479C153.256 233.217 153.064 233.011 152.817 232.861C152.572 232.71 152.286 232.635 151.956 232.635C151.598 232.635 151.286 232.723 151.018 232.899C150.754 233.072 150.55 233.3 150.405 233.581C150.263 233.859 150.192 234.162 150.192 234.488V235.234C150.192 235.672 150.268 236.044 150.422 236.351C150.578 236.657 150.795 236.892 151.074 237.054C151.352 237.213 151.678 237.292 152.05 237.292C152.291 237.292 152.511 237.258 152.71 237.19C152.909 237.119 153.081 237.014 153.226 236.875C153.371 236.736 153.482 236.564 153.558 236.359L154.764 236.577C154.668 236.932 154.494 237.243 154.244 237.51C153.997 237.774 153.686 237.98 153.311 238.128C152.939 238.273 152.514 238.345 152.037 238.345ZM161.164 233.265L160.009 233.47C159.961 233.322 159.884 233.182 159.779 233.048C159.676 232.915 159.537 232.805 159.361 232.72C159.185 232.635 158.965 232.592 158.701 232.592C158.34 232.592 158.039 232.673 157.797 232.835C157.556 232.994 157.435 233.2 157.435 233.453C157.435 233.672 157.516 233.848 157.678 233.981C157.84 234.115 158.101 234.224 158.462 234.309L159.502 234.548C160.104 234.687 160.553 234.902 160.848 235.192C161.144 235.481 161.292 235.858 161.292 236.321C161.292 236.713 161.178 237.062 160.951 237.369C160.726 237.673 160.412 237.912 160.009 238.085C159.608 238.258 159.144 238.345 158.615 238.345C157.882 238.345 157.284 238.189 156.821 237.876C156.358 237.561 156.074 237.113 155.969 236.534L157.201 236.346C157.277 236.667 157.435 236.91 157.674 237.075C157.912 237.237 158.223 237.318 158.607 237.318C159.025 237.318 159.358 237.231 159.608 237.058C159.858 236.882 159.983 236.667 159.983 236.415C159.983 236.21 159.907 236.038 159.753 235.899C159.603 235.76 159.371 235.655 159.059 235.584L157.951 235.341C157.34 235.202 156.888 234.98 156.596 234.676C156.306 234.372 156.161 233.987 156.161 233.521C156.161 233.135 156.269 232.797 156.485 232.507C156.701 232.217 156.999 231.991 157.38 231.829C157.76 231.665 158.196 231.582 158.688 231.582C159.395 231.582 159.952 231.736 160.358 232.042C160.765 232.346 161.033 232.754 161.164 233.265ZM165.748 231.667V232.69H162.173V231.667H165.748ZM163.131 230.099H164.406V236.291C164.406 236.538 164.442 236.724 164.516 236.849C164.59 236.971 164.685 237.055 164.802 237.101C164.921 237.143 165.05 237.165 165.19 237.165C165.292 237.165 165.381 237.157 165.458 237.143C165.535 237.129 165.594 237.118 165.637 237.109L165.867 238.162C165.793 238.19 165.688 238.219 165.552 238.247C165.415 238.278 165.245 238.295 165.04 238.298C164.705 238.304 164.393 238.244 164.103 238.119C163.813 237.994 163.579 237.801 163.4 237.54C163.221 237.278 163.131 236.95 163.131 236.555V230.099ZM167.157 238.213V231.667H168.431V238.213H167.157ZM167.801 230.657C167.579 230.657 167.389 230.584 167.23 230.436C167.074 230.285 166.995 230.106 166.995 229.899C166.995 229.689 167.074 229.51 167.23 229.362C167.389 229.211 167.579 229.136 167.801 229.136C168.022 229.136 168.211 229.211 168.368 229.362C168.527 229.51 168.606 229.689 168.606 229.899C168.606 230.106 168.527 230.285 168.368 230.436C168.211 230.584 168.022 230.657 167.801 230.657ZM172.903 238.345C172.289 238.345 171.754 238.204 171.296 237.923C170.839 237.642 170.484 237.248 170.231 236.743C169.978 236.237 169.852 235.646 169.852 234.97C169.852 234.291 169.978 233.697 170.231 233.189C170.484 232.68 170.839 232.285 171.296 232.004C171.754 231.723 172.289 231.582 172.903 231.582C173.516 231.582 174.052 231.723 174.509 232.004C174.967 232.285 175.322 232.68 175.575 233.189C175.827 233.697 175.954 234.291 175.954 234.97C175.954 235.646 175.827 236.237 175.575 236.743C175.322 237.248 174.967 237.642 174.509 237.923C174.052 238.204 173.516 238.345 172.903 238.345ZM172.907 237.275C173.305 237.275 173.634 237.17 173.896 236.96C174.157 236.75 174.35 236.47 174.475 236.121C174.603 235.771 174.667 235.386 174.667 234.966C174.667 234.548 174.603 234.165 174.475 233.815C174.35 233.463 174.157 233.18 173.896 232.967C173.634 232.754 173.305 232.648 172.907 232.648C172.506 232.648 172.174 232.754 171.91 232.967C171.648 233.18 171.454 233.463 171.326 233.815C171.201 234.165 171.138 234.548 171.138 234.966C171.138 235.386 171.201 235.771 171.326 236.121C171.454 236.47 171.648 236.75 171.91 236.96C172.174 237.17 172.506 237.275 172.907 237.275ZM178.65 234.327V238.213H177.376V231.667H178.599V232.733H178.68C178.831 232.386 179.066 232.108 179.387 231.898C179.711 231.687 180.119 231.582 180.61 231.582C181.056 231.582 181.447 231.676 181.782 231.863C182.118 232.048 182.377 232.324 182.562 232.69C182.747 233.057 182.839 233.51 182.839 234.05V238.213H181.565V234.203C181.565 233.729 181.441 233.358 181.194 233.091C180.947 232.821 180.608 232.686 180.176 232.686C179.88 232.686 179.618 232.75 179.387 232.878C179.16 233.006 178.98 233.193 178.846 233.44C178.716 233.684 178.65 233.98 178.65 234.327ZM189.453 233.265L188.298 233.47C188.25 233.322 188.173 233.182 188.068 233.048C187.966 232.915 187.826 232.805 187.65 232.72C187.474 232.635 187.254 232.592 186.99 232.592C186.629 232.592 186.328 232.673 186.086 232.835C185.845 232.994 185.724 233.2 185.724 233.453C185.724 233.672 185.805 233.848 185.967 233.981C186.129 234.115 186.39 234.224 186.751 234.309L187.791 234.548C188.393 234.687 188.842 234.902 189.137 235.192C189.433 235.481 189.581 235.858 189.581 236.321C189.581 236.713 189.467 237.062 189.24 237.369C189.015 237.673 188.701 237.912 188.298 238.085C187.897 238.258 187.433 238.345 186.904 238.345C186.172 238.345 185.574 238.189 185.11 237.876C184.647 237.561 184.363 237.113 184.258 236.534L185.49 236.346C185.566 236.667 185.724 236.91 185.963 237.075C186.201 237.237 186.512 237.318 186.896 237.318C187.314 237.318 187.647 237.231 187.897 237.058C188.147 236.882 188.272 236.667 188.272 236.415C188.272 236.21 188.196 236.038 188.042 235.899C187.892 235.76 187.66 235.655 187.348 235.584L186.24 235.341C185.629 235.202 185.177 234.98 184.885 234.676C184.595 234.372 184.45 233.987 184.45 233.521C184.45 233.135 184.558 232.797 184.774 232.507C184.99 232.217 185.288 231.991 185.669 231.829C186.049 231.665 186.485 231.582 186.977 231.582C187.684 231.582 188.241 231.736 188.647 232.042C189.054 232.346 189.322 232.754 189.453 233.265Z" fill="white"/>
<path d="M130.208 247.365C134.672 247.365 137.144 250.389 137.144 255.813C137.144 261.237 134.672 264.261 130.208 264.261C125.744 264.261 123.272 261.237 123.272 255.813C123.272 250.389 125.744 247.365 130.208 247.365ZM130.208 248.997C126.944 248.997 125.216 251.253 125.216 255.813C125.216 260.349 126.944 262.629 130.208 262.629C133.472 262.629 135.2 260.349 135.2 255.813C135.2 251.253 133.472 248.997 130.208 248.997ZM146.36 267.141H144.728L152.216 244.533H153.872L146.36 267.141ZM164.907 264.213H163.011V249.237H159.603V247.413H164.907V264.213ZM176.31 247.365C180.774 247.365 183.246 250.389 183.246 255.813C183.246 261.237 180.774 264.261 176.31 264.261C171.846 264.261 169.374 261.237 169.374 255.813C169.374 250.389 171.846 247.365 176.31 247.365ZM176.31 248.997C173.046 248.997 171.318 251.253 171.318 255.813C171.318 260.349 173.046 262.629 176.31 262.629C179.574 262.629 181.302 260.349 181.302 255.813C181.302 251.253 179.574 248.997 176.31 248.997ZM192.716 247.365C197.18 247.365 199.652 250.389 199.652 255.813C199.652 261.237 197.18 264.261 192.716 264.261C188.252 264.261 185.78 261.237 185.78 255.813C185.78 250.389 188.252 247.365 192.716 247.365ZM192.716 248.997C189.452 248.997 187.724 251.253 187.724 255.813C187.724 260.349 189.452 262.629 192.716 262.629C195.98 262.629 197.708 260.349 197.708 255.813C197.708 251.253 195.98 248.997 192.716 248.997Z" fill="white"/>
<rect x="242" y="220.213" width="153" height="52" rx="8" fill="#0A2354"/>
<path d="M282.668 252.369C281.225 252.369 279.769 251.94 278.963 251.316L279.678 249.73C280.445 250.289 281.589 250.679 282.681 250.679C283.929 250.679 284.436 250.263 284.436 249.704C284.436 248.001 279.145 249.171 279.145 245.791C279.145 244.244 280.393 242.957 282.98 242.957C284.124 242.957 285.294 243.23 286.139 243.763L285.489 245.362C284.644 244.881 283.773 244.647 282.967 244.647C281.719 244.647 281.238 245.115 281.238 245.687C281.238 247.364 286.529 246.207 286.529 249.548C286.529 251.069 285.268 252.369 282.668 252.369ZM289.726 252.213V244.829H286.814V243.113H294.744V244.829H291.832V252.213H289.726ZM302.219 252.213L301.413 250.263H297.188L296.382 252.213H294.224L298.28 243.113H300.36L304.429 252.213H302.219ZM297.864 248.664H300.75L299.307 245.18L297.864 248.664ZM313.433 252.213H311.171L309.416 249.678H309.312H307.479V252.213H305.373V243.113H309.312C311.743 243.113 313.264 244.374 313.264 246.415C313.264 247.78 312.575 248.781 311.392 249.288L313.433 252.213ZM311.132 246.415C311.132 245.414 310.482 244.829 309.195 244.829H307.479V248.001H309.195C310.482 248.001 311.132 247.403 311.132 246.415ZM316.691 252.213V244.829H313.779V243.113H321.709V244.829H318.797V252.213H316.691ZM328.408 252.213V244.829H325.496V243.113H333.426V244.829H330.514V252.213H328.408ZM336.652 250.523H341.605V252.213H334.559V243.113H341.436V244.803H336.652V246.779H340.877V248.417H336.652V250.523ZM346.271 252.369C344.828 252.369 343.372 251.94 342.566 251.316L343.281 249.73C344.048 250.289 345.192 250.679 346.284 250.679C347.532 250.679 348.039 250.263 348.039 249.704C348.039 248.001 342.748 249.171 342.748 245.791C342.748 244.244 343.996 242.957 346.583 242.957C347.727 242.957 348.897 243.23 349.742 243.763L349.092 245.362C348.247 244.881 347.376 244.647 346.57 244.647C345.322 244.647 344.841 245.115 344.841 245.687C344.841 247.364 350.132 246.207 350.132 249.548C350.132 251.069 348.871 252.369 346.271 252.369ZM353.329 252.213V244.829H350.417V243.113H358.347V244.829H355.435V252.213H353.329Z" fill="white"/>
</g>
<defs>
<filter id="filter0_d_10_1032" x="39" y="94.8218" width="402" height="235.391" filterUnits="userSpaceOnUse" color-interpolation-filters="sRGB">
<feFlood flood-opacity="0" result="BackgroundImageFix"/>
<feColorMatrix in="SourceAlpha" type="matrix" values="0 0 0 0 0 0 0 0 0 0 0 0 0 0 0 0 0 0 127 0" result="hardAlpha"/>
<feOffset dy="12"/>
<feGaussianBlur stdDeviation="11"/>
<feComposite in2="hardAlpha" operator="out"/>
<feColorMatrix type="matrix" values="0 0 0 0 0 0 0 0 0 0 0 0 0 0 0 0 0 0 0.06 0"/>
<feBlend mode="normal" in2="BackgroundImageFix" result="effect1_dropShadow_10_1032"/>
<feBlend mode="normal" in="SourceGraphic" in2="effect1_dropShadow_10_1032" result="shape"/>
</filter>
</defs>
</svg>
