<svg width="538" height="560" viewBox="0 0 538 560" fill="none" xmlns="http://www.w3.org/2000/svg">
<rect width="538" height="559.518" rx="24" fill="#EEF2FF"/>
<g filter="url(#filter0_d_10_919)">
<rect x="66" y="66" width="406" height="203" rx="16" fill="white" shape-rendering="crispEdges"/>
<path d="M100.912 108H99.168L96.752 104.56C96.528 104.576 96.288 104.592 96.048 104.592H93.28V108H91.68V96.8H96.048C98.96 96.8 100.72 98.272 100.72 100.704C100.72 102.432 99.824 103.68 98.256 104.24L100.912 108ZM96 103.232C98.048 103.232 99.12 102.304 99.12 100.704C99.12 99.104 98.048 98.192 96 98.192H93.28V103.232H96ZM110.745 103.808C110.745 103.936 110.729 104.128 110.713 104.272H103.833C104.025 105.76 105.225 106.752 106.905 106.752C107.897 106.752 108.729 106.416 109.353 105.728L110.201 106.72C109.433 107.616 108.265 108.096 106.857 108.096C104.121 108.096 102.297 106.288 102.297 103.76C102.297 101.248 104.105 99.44 106.553 99.44C109.001 99.44 110.745 101.2 110.745 103.808ZM106.553 100.736C105.081 100.736 103.993 101.728 103.833 103.168H109.273C109.113 101.744 108.041 100.736 106.553 100.736ZM115.732 99.44C118.052 99.44 119.364 100.56 119.364 102.88V108H117.908V106.88C117.396 107.648 116.452 108.096 115.124 108.096C113.204 108.096 111.988 107.072 111.988 105.6C111.988 104.24 112.868 103.12 115.396 103.12H117.828V102.816C117.828 101.52 117.076 100.768 115.556 100.768C114.548 100.768 113.524 101.12 112.868 101.68L112.228 100.528C113.108 99.824 114.372 99.44 115.732 99.44ZM115.38 106.912C116.532 106.912 117.444 106.384 117.828 105.408V104.224H115.46C113.94 104.224 113.508 104.816 113.508 105.536C113.508 106.384 114.212 106.912 115.38 106.912ZM128.717 96.128H130.253V108H128.781V106.656C128.093 107.616 127.005 108.096 125.757 108.096C123.277 108.096 121.469 106.352 121.469 103.76C121.469 101.168 123.277 99.44 125.757 99.44C126.957 99.44 128.013 99.888 128.717 100.8V96.128ZM125.885 106.752C127.501 106.752 128.733 105.568 128.733 103.76C128.733 101.952 127.501 100.784 125.885 100.784C124.253 100.784 123.021 101.952 123.021 103.76C123.021 105.568 124.253 106.752 125.885 106.752ZM133.927 97.888C133.335 97.888 132.887 97.456 132.887 96.896C132.887 96.336 133.335 95.888 133.927 95.888C134.519 95.888 134.967 96.32 134.967 96.864C134.967 97.44 134.535 97.888 133.927 97.888ZM133.159 108V99.52H134.695V108H133.159ZM142.156 99.44C144.22 99.44 145.676 100.624 145.676 103.12V108H144.14V103.296C144.14 101.632 143.308 100.816 141.852 100.816C140.22 100.816 139.164 101.792 139.164 103.632V108H137.628V99.52H139.1V100.8C139.724 99.936 140.812 99.44 142.156 99.44ZM156.229 103.808C156.229 103.936 156.213 104.128 156.197 104.272H149.317C149.509 105.76 150.709 106.752 152.389 106.752C153.381 106.752 154.213 106.416 154.837 105.728L155.685 106.72C154.917 107.616 153.749 108.096 152.341 108.096C149.605 108.096 147.781 106.288 147.781 103.76C147.781 101.248 149.589 99.44 152.037 99.44C154.485 99.44 156.229 101.2 156.229 103.808ZM152.037 100.736C150.565 100.736 149.477 101.728 149.317 103.168H154.757C154.597 101.744 153.525 100.736 152.037 100.736ZM160.794 108.096C159.386 108.096 157.994 107.664 157.29 107.104L157.93 105.888C158.65 106.4 159.802 106.768 160.906 106.768C162.33 106.768 162.922 106.336 162.922 105.616C162.922 103.712 157.562 105.36 157.562 101.984C157.562 100.464 158.922 99.44 161.098 99.44C162.202 99.44 163.45 99.728 164.186 100.208L163.53 101.424C162.762 100.928 161.914 100.752 161.082 100.752C159.738 100.752 159.082 101.248 159.082 101.92C159.082 103.92 164.458 102.288 164.458 105.584C164.458 107.12 163.05 108.096 160.794 108.096ZM168.81 108.096C167.402 108.096 166.01 107.664 165.306 107.104L165.946 105.888C166.666 106.4 167.818 106.768 168.922 106.768C170.346 106.768 170.938 106.336 170.938 105.616C170.938 103.712 165.578 105.36 165.578 101.984C165.578 100.464 166.938 99.44 169.114 99.44C170.218 99.44 171.466 99.728 172.202 100.208L171.546 101.424C170.778 100.928 169.93 100.752 169.098 100.752C167.754 100.752 167.098 101.248 167.098 101.92C167.098 103.92 172.474 102.288 172.474 105.584C172.474 107.12 171.066 108.096 168.81 108.096ZM180.514 106.608H187.042V108H178.914V96.8H186.818V98.192H180.514V101.632H186.13V102.992H180.514V106.608ZM196.374 108H194.63L192.182 104.752L189.702 108H187.99L191.334 103.664L188.15 99.52H189.862L192.198 102.576L194.518 99.52H196.198L192.998 103.664L196.374 108ZM200.982 99.44C203.302 99.44 204.614 100.56 204.614 102.88V108H203.158V106.88C202.646 107.648 201.702 108.096 200.374 108.096C198.454 108.096 197.238 107.072 197.238 105.6C197.238 104.24 198.118 103.12 200.646 103.12H203.078V102.816C203.078 101.52 202.326 100.768 200.806 100.768C199.798 100.768 198.774 101.12 198.118 101.68L197.478 100.528C198.358 99.824 199.622 99.44 200.982 99.44ZM200.63 106.912C201.782 106.912 202.694 106.384 203.078 105.408V104.224H200.71C199.19 104.224 198.758 104.816 198.758 105.536C198.758 106.384 199.462 106.912 200.63 106.912ZM218.064 99.44C220.128 99.44 221.536 100.624 221.536 103.12V108H220V103.296C220 101.632 219.2 100.816 217.808 100.816C216.272 100.816 215.264 101.792 215.264 103.632V108H213.728V103.296C213.728 101.632 212.928 100.816 211.536 100.816C210 100.816 208.992 101.792 208.992 103.632V108H207.456V99.52H208.928V100.784C209.536 99.92 210.576 99.44 211.856 99.44C213.152 99.44 214.24 99.952 214.8 101.008C215.44 100.048 216.624 99.44 218.064 99.44ZM227.331 96.8H231.443V108H229.859V98.192H227.331V96.8Z" fill="#A7ABC0"/>
<rect x="246" y="95.5966" width="202" height="13.8067" rx="6.90337" fill="#A7ABC0" fill-opacity="0.22"/>
<rect x="246.51" y="95.9034" width="27.5455" height="13" rx="6.5" fill="#E05E57"/>
<rect x="90" y="131" width="358" height="114" rx="12" fill="#E05E57" fill-opacity="0.44"/>
<rect x="98" y="147" width="110.494" height="82" rx="8" fill="white" fill-opacity="0.12"/>
<g clip-path="url(#clip0_10_919)">
<path d="M148.055 157C148.277 157 148.491 157.088 148.649 157.246C148.806 157.404 148.895 157.617 148.895 157.84V159.411H157.915V157.851C157.915 157.628 158.004 157.414 158.161 157.257C158.319 157.099 158.532 157.011 158.755 157.011C158.978 157.011 159.192 157.099 159.349 157.257C159.507 157.414 159.595 157.628 159.595 157.851V159.411H162.847C163.483 159.411 164.094 159.663 164.544 160.113C164.994 160.563 165.247 161.173 165.247 161.81V178.601C165.247 179.238 164.994 179.848 164.544 180.297C164.094 180.747 163.483 181 162.847 181H143.647C143.011 181 142.4 180.747 141.95 180.297C141.5 179.848 141.247 179.238 141.247 178.601V161.81C141.247 161.173 141.5 160.563 141.95 160.113C142.4 159.663 143.011 159.411 143.647 159.411H147.215V157.839C147.215 157.616 147.304 157.403 147.461 157.246C147.619 157.088 147.832 157 148.055 157ZM142.927 166.29V178.601C142.927 178.696 142.946 178.789 142.982 178.877C143.018 178.964 143.071 179.043 143.138 179.11C143.205 179.177 143.284 179.23 143.372 179.266C143.459 179.303 143.553 179.321 143.647 179.321H162.847C162.942 179.321 163.035 179.303 163.123 179.266C163.21 179.23 163.289 179.177 163.356 179.11C163.423 179.043 163.476 178.964 163.512 178.877C163.548 178.789 163.567 178.696 163.567 178.601V166.307L142.927 166.29ZM149.247 174.543V176.542H147.247V174.543H149.247ZM154.247 174.543V176.542H152.247V174.543H154.247ZM159.247 174.543V176.542H157.247V174.543H159.247ZM149.247 169.77V171.77H147.247V169.77H149.247ZM154.247 169.77V171.77H152.247V169.77H154.247ZM159.247 169.77V171.77H157.247V169.77H159.247ZM147.215 161.09H143.647C143.553 161.09 143.459 161.108 143.372 161.144C143.284 161.181 143.205 161.234 143.138 161.3C143.071 161.367 143.018 161.447 142.982 161.534C142.946 161.621 142.927 161.715 142.927 161.81V164.612L163.567 164.628V161.81C163.567 161.715 163.548 161.621 163.512 161.534C163.476 161.447 163.423 161.367 163.356 161.3C163.289 161.234 163.21 161.181 163.123 161.144C163.035 161.108 162.942 161.09 162.847 161.09H159.595V162.204C159.595 162.427 159.507 162.641 159.349 162.798C159.192 162.956 158.978 163.044 158.755 163.044C158.532 163.044 158.319 162.956 158.161 162.798C158.004 162.641 157.915 162.427 157.915 162.204V161.09H148.895V162.194C148.895 162.416 148.806 162.63 148.649 162.788C148.491 162.945 148.277 163.034 148.055 163.034C147.832 163.034 147.618 162.945 147.461 162.788C147.303 162.63 147.215 162.416 147.215 162.194V161.09Z" fill="white"/>
</g>
<path d="M147.098 184.273H148.41V190.46C148.41 191.02 148.3 191.499 148.078 191.896C147.859 192.294 147.551 192.598 147.153 192.808C146.756 193.016 146.29 193.119 145.756 193.119C145.264 193.119 144.822 193.03 144.43 192.851C144.041 192.672 143.733 192.412 143.506 192.071C143.281 191.727 143.169 191.31 143.169 190.818H144.477C144.477 191.06 144.533 191.268 144.643 191.445C144.757 191.621 144.912 191.759 145.108 191.858C145.307 191.955 145.534 192.003 145.79 192.003C146.068 192.003 146.304 191.945 146.497 191.828C146.693 191.709 146.842 191.534 146.945 191.304C147.047 191.074 147.098 190.793 147.098 190.46V184.273ZM152.13 193.145C151.715 193.145 151.34 193.068 151.005 192.915C150.669 192.759 150.404 192.533 150.208 192.237C150.014 191.942 149.918 191.58 149.918 191.151C149.918 190.781 149.989 190.477 150.131 190.239C150.273 190 150.465 189.811 150.706 189.672C150.948 189.533 151.218 189.428 151.516 189.357C151.814 189.286 152.118 189.232 152.428 189.195C152.82 189.149 153.138 189.112 153.382 189.084C153.627 189.053 153.804 189.003 153.915 188.935C154.026 188.866 154.081 188.756 154.081 188.602V188.572C154.081 188.2 153.976 187.912 153.766 187.707C153.559 187.503 153.249 187.401 152.837 187.401C152.408 187.401 152.07 187.496 151.823 187.686C151.578 187.874 151.409 188.082 151.316 188.312L150.118 188.04C150.26 187.642 150.468 187.321 150.74 187.077C151.016 186.83 151.333 186.651 151.691 186.54C152.049 186.426 152.425 186.369 152.82 186.369C153.081 186.369 153.358 186.401 153.651 186.463C153.946 186.523 154.222 186.634 154.478 186.795C154.736 186.957 154.948 187.189 155.112 187.49C155.277 187.788 155.36 188.176 155.36 188.653V193H154.115V192.105H154.064C153.982 192.27 153.858 192.432 153.693 192.591C153.529 192.75 153.317 192.882 153.059 192.987C152.8 193.092 152.49 193.145 152.13 193.145ZM152.407 192.122C152.759 192.122 153.06 192.053 153.31 191.913C153.563 191.774 153.755 191.592 153.885 191.368C154.019 191.141 154.085 190.898 154.085 190.639V189.795C154.04 189.841 153.952 189.884 153.821 189.923C153.693 189.96 153.547 189.993 153.382 190.021C153.218 190.047 153.057 190.071 152.901 190.094C152.745 190.114 152.614 190.131 152.509 190.145C152.262 190.176 152.036 190.229 151.831 190.303C151.63 190.376 151.468 190.483 151.345 190.622C151.226 190.759 151.166 190.94 151.166 191.168C151.166 191.483 151.283 191.722 151.516 191.884C151.749 192.043 152.046 192.122 152.407 192.122ZM158.331 189.114V193H157.057V186.455H158.28V187.52H158.361C158.511 187.173 158.747 186.895 159.068 186.685C159.392 186.474 159.8 186.369 160.291 186.369C160.737 186.369 161.128 186.463 161.463 186.651C161.798 186.835 162.058 187.111 162.243 187.477C162.427 187.844 162.52 188.297 162.52 188.837V193H161.246V188.99C161.246 188.516 161.122 188.145 160.875 187.878C160.628 187.608 160.288 187.473 159.856 187.473C159.561 187.473 159.298 187.537 159.068 187.665C158.841 187.793 158.66 187.98 158.527 188.227C158.396 188.472 158.331 188.767 158.331 189.114Z" fill="white"/>
<path d="M143.623 209.304L144.559 209.376C147.583 209.52 149.623 211.152 149.623 213.84C149.623 216.936 147.343 219.096 143.743 219.096C141.799 219.096 139.807 218.4 138.415 217.392L139.255 215.784C140.455 216.768 142.039 217.368 143.599 217.368C146.215 217.368 147.751 215.952 147.751 213.912C147.751 211.8 146.191 210.72 143.575 210.72H141.511V209.496L146.431 204.048H139.159V202.224H148.831V203.52L143.623 209.304ZM159.111 202.152C163.575 202.152 166.047 205.176 166.047 210.6C166.047 216.024 163.575 219.048 159.111 219.048C154.647 219.048 152.175 216.024 152.175 210.6C152.175 205.176 154.647 202.152 159.111 202.152ZM159.111 203.784C155.847 203.784 154.119 206.04 154.119 210.6C154.119 215.136 155.847 217.416 159.111 217.416C162.375 217.416 164.103 215.136 164.103 210.6C164.103 206.04 162.375 203.784 159.111 203.784Z" fill="white"/>
<rect x="212.494" y="147" width="110.494" height="82" rx="8" fill="#E05E57" fill-opacity="0.44"/>
<path d="M267.741 157.625C265.411 157.625 263.133 158.292 261.196 159.542C259.258 160.792 257.748 162.568 256.857 164.647C255.965 166.725 255.732 169.013 256.186 171.219C256.641 173.426 257.763 175.453 259.411 177.043C261.058 178.634 263.157 179.718 265.443 180.156C267.728 180.595 270.097 180.37 272.25 179.509C274.402 178.648 276.242 177.19 277.537 175.32C278.832 173.449 279.522 171.25 279.522 169C279.519 165.984 278.277 163.093 276.068 160.96C273.859 158.828 270.865 157.628 267.741 157.625ZM267.741 178.625C265.77 178.625 263.842 178.061 262.203 177.003C260.564 175.945 259.286 174.442 258.531 172.683C257.777 170.925 257.579 168.989 257.964 167.122C258.349 165.255 259.298 163.54 260.692 162.194C262.086 160.848 263.863 159.931 265.796 159.56C267.73 159.189 269.735 159.379 271.556 160.108C273.378 160.836 274.935 162.07 276.03 163.653C277.125 165.235 277.71 167.096 277.71 169C277.707 171.552 276.656 173.998 274.787 175.803C272.918 177.607 270.384 178.622 267.741 178.625ZM262.304 166.812C262.304 166.553 262.383 166.299 262.533 166.083C262.682 165.867 262.894 165.699 263.143 165.6C263.391 165.501 263.665 165.475 263.928 165.525C264.192 165.576 264.434 165.701 264.624 165.884C264.814 166.068 264.944 166.302 264.996 166.556C265.049 166.811 265.022 167.075 264.919 167.315C264.816 167.555 264.642 167.76 264.418 167.904C264.195 168.048 263.932 168.125 263.663 168.125C263.303 168.125 262.957 167.987 262.702 167.741C262.447 167.494 262.304 167.161 262.304 166.812ZM273.179 166.812C273.179 167.072 273.099 167.326 272.95 167.542C272.8 167.758 272.588 167.926 272.34 168.025C272.091 168.124 271.818 168.15 271.554 168.1C271.29 168.049 271.048 167.924 270.858 167.741C270.668 167.557 270.539 167.323 270.486 167.069C270.434 166.814 270.461 166.55 270.563 166.31C270.666 166.07 270.841 165.865 271.064 165.721C271.288 165.577 271.55 165.5 271.819 165.5C272.18 165.5 272.526 165.638 272.781 165.884C273.035 166.131 273.179 166.464 273.179 166.812ZM273.056 173.812C273.122 173.912 273.166 174.023 273.186 174.14C273.206 174.256 273.201 174.375 273.172 174.49C273.143 174.605 273.09 174.712 273.017 174.807C272.943 174.901 272.851 174.98 272.745 175.039C272.639 175.099 272.522 175.136 272.401 175.151C272.28 175.165 272.156 175.155 272.039 175.122C271.922 175.089 271.812 175.034 271.718 174.959C271.623 174.884 271.545 174.792 271.489 174.687C270.642 173.275 269.312 172.5 267.741 172.5C266.17 172.5 264.84 173.277 263.994 174.687C263.937 174.792 263.859 174.884 263.765 174.959C263.67 175.034 263.561 175.089 263.443 175.122C263.326 175.155 263.203 175.165 263.082 175.151C262.96 175.136 262.843 175.099 262.737 175.039C262.632 174.98 262.539 174.901 262.466 174.807C262.392 174.712 262.34 174.605 262.311 174.49C262.282 174.375 262.277 174.256 262.297 174.14C262.316 174.023 262.36 173.912 262.426 173.812C263.592 171.867 265.529 170.75 267.741 170.75C269.954 170.75 271.891 171.866 273.056 173.812Z" fill="white"/>
<path d="M253.949 189.111H252.619C252.568 188.827 252.473 188.577 252.334 188.361C252.194 188.145 252.024 187.962 251.822 187.811C251.62 187.661 251.395 187.547 251.145 187.47C250.897 187.393 250.635 187.355 250.356 187.355C249.853 187.355 249.403 187.482 249.005 187.734C248.611 187.987 248.298 188.358 248.068 188.847C247.841 189.335 247.727 189.932 247.727 190.636C247.727 191.347 247.841 191.946 248.068 192.435C248.298 192.923 248.612 193.293 249.01 193.543C249.407 193.793 249.855 193.918 250.352 193.918C250.628 193.918 250.889 193.881 251.136 193.807C251.386 193.73 251.612 193.618 251.814 193.47C252.015 193.322 252.186 193.142 252.325 192.929C252.467 192.713 252.565 192.466 252.619 192.188L253.949 192.192C253.878 192.621 253.74 193.016 253.535 193.376C253.334 193.734 253.074 194.044 252.755 194.305C252.44 194.564 252.079 194.764 251.673 194.906C251.267 195.048 250.824 195.119 250.343 195.119C249.588 195.119 248.915 194.94 248.324 194.582C247.733 194.222 247.267 193.706 246.926 193.036C246.588 192.365 246.419 191.565 246.419 190.636C246.419 189.705 246.589 188.905 246.93 188.237C247.271 187.567 247.737 187.053 248.328 186.695C248.919 186.334 249.591 186.153 250.343 186.153C250.807 186.153 251.238 186.22 251.639 186.354C252.042 186.484 252.405 186.678 252.726 186.933C253.047 187.186 253.312 187.496 253.522 187.862C253.733 188.226 253.875 188.642 253.949 189.111ZM256.696 191.114V195H255.422V186.273H256.679V189.52H256.76C256.913 189.168 257.148 188.888 257.463 188.68C257.778 188.473 258.19 188.369 258.699 188.369C259.148 188.369 259.54 188.462 259.875 188.646C260.213 188.831 260.475 189.107 260.659 189.473C260.847 189.837 260.94 190.291 260.94 190.837V195H259.666V190.99C259.666 190.51 259.543 190.138 259.296 189.874C259.048 189.607 258.705 189.473 258.264 189.473C257.963 189.473 257.693 189.537 257.455 189.665C257.219 189.793 257.033 189.98 256.896 190.227C256.763 190.472 256.696 190.767 256.696 191.114ZM264.546 195.145C264.131 195.145 263.756 195.068 263.421 194.915C263.085 194.759 262.82 194.533 262.624 194.237C262.43 193.942 262.334 193.58 262.334 193.151C262.334 192.781 262.405 192.477 262.547 192.239C262.689 192 262.881 191.811 263.122 191.672C263.364 191.533 263.634 191.428 263.932 191.357C264.23 191.286 264.534 191.232 264.844 191.195C265.236 191.149 265.554 191.112 265.798 191.084C266.043 191.053 266.22 191.003 266.331 190.935C266.442 190.866 266.497 190.756 266.497 190.602V190.572C266.497 190.2 266.392 189.912 266.182 189.707C265.975 189.503 265.665 189.401 265.253 189.401C264.824 189.401 264.486 189.496 264.239 189.686C263.994 189.874 263.825 190.082 263.732 190.312L262.534 190.04C262.676 189.642 262.884 189.321 263.156 189.077C263.432 188.83 263.749 188.651 264.107 188.54C264.465 188.426 264.841 188.369 265.236 188.369C265.497 188.369 265.774 188.401 266.067 188.463C266.362 188.523 266.638 188.634 266.894 188.795C267.152 188.957 267.364 189.189 267.528 189.49C267.693 189.788 267.776 190.176 267.776 190.653V195H266.531V194.105H266.48C266.398 194.27 266.274 194.432 266.109 194.591C265.945 194.75 265.733 194.882 265.475 194.987C265.216 195.092 264.906 195.145 264.546 195.145ZM264.823 194.122C265.175 194.122 265.476 194.053 265.726 193.913C265.979 193.774 266.171 193.592 266.301 193.368C266.435 193.141 266.502 192.898 266.502 192.639V191.795C266.456 191.841 266.368 191.884 266.237 191.923C266.109 191.96 265.963 191.993 265.798 192.021C265.634 192.047 265.473 192.071 265.317 192.094C265.161 192.114 265.03 192.131 264.925 192.145C264.678 192.176 264.452 192.229 264.247 192.303C264.046 192.376 263.884 192.483 263.761 192.622C263.642 192.759 263.582 192.94 263.582 193.168C263.582 193.483 263.699 193.722 263.932 193.884C264.165 194.043 264.462 194.122 264.823 194.122ZM270.747 191.114V195H269.473V188.455H270.696V189.52H270.777C270.927 189.173 271.163 188.895 271.484 188.685C271.808 188.474 272.216 188.369 272.707 188.369C273.153 188.369 273.544 188.463 273.879 188.651C274.214 188.835 274.474 189.111 274.659 189.477C274.843 189.844 274.936 190.297 274.936 190.837V195H273.662V190.99C273.662 190.516 273.538 190.145 273.291 189.878C273.044 189.608 272.704 189.473 272.272 189.473C271.977 189.473 271.714 189.537 271.484 189.665C271.257 189.793 271.076 189.98 270.943 190.227C270.812 190.472 270.747 190.767 270.747 191.114ZM279.402 195.132C278.768 195.132 278.223 194.989 277.765 194.702C277.311 194.412 276.961 194.013 276.717 193.504C276.473 192.996 276.351 192.413 276.351 191.757C276.351 191.092 276.476 190.506 276.726 189.997C276.976 189.486 277.328 189.087 277.782 188.8C278.237 188.513 278.772 188.369 279.389 188.369C279.886 188.369 280.329 188.462 280.718 188.646C281.108 188.828 281.422 189.084 281.66 189.413C281.902 189.743 282.045 190.128 282.091 190.568H280.851C280.782 190.261 280.626 189.997 280.382 189.776C280.14 189.554 279.816 189.443 279.41 189.443C279.055 189.443 278.744 189.537 278.477 189.724C278.213 189.909 278.007 190.173 277.859 190.517C277.711 190.858 277.638 191.261 277.638 191.727C277.638 192.205 277.71 192.616 277.855 192.963C278 193.31 278.204 193.578 278.468 193.768C278.736 193.959 279.049 194.054 279.41 194.054C279.652 194.054 279.87 194.01 280.066 193.922C280.265 193.831 280.432 193.702 280.565 193.534C280.701 193.366 280.797 193.165 280.851 192.929H282.091C282.045 193.352 281.907 193.73 281.677 194.062C281.447 194.395 281.139 194.656 280.753 194.847C280.369 195.037 279.919 195.132 279.402 195.132ZM286.274 195.132C285.629 195.132 285.074 194.994 284.608 194.719C284.145 194.44 283.787 194.05 283.534 193.547C283.284 193.041 283.159 192.449 283.159 191.77C283.159 191.099 283.284 190.509 283.534 189.997C283.787 189.486 284.139 189.087 284.591 188.8C285.046 188.513 285.577 188.369 286.185 188.369C286.554 188.369 286.912 188.43 287.259 188.553C287.605 188.675 287.916 188.866 288.192 189.128C288.467 189.389 288.685 189.729 288.844 190.146C289.003 190.561 289.082 191.065 289.082 191.659V192.111H283.879V191.156H287.834C287.834 190.821 287.766 190.524 287.629 190.266C287.493 190.004 287.301 189.798 287.054 189.648C286.81 189.497 286.523 189.422 286.193 189.422C285.835 189.422 285.523 189.51 285.256 189.686C284.992 189.859 284.787 190.087 284.642 190.368C284.5 190.646 284.429 190.949 284.429 191.276V192.021C284.429 192.459 284.506 192.831 284.659 193.138C284.815 193.445 285.033 193.679 285.311 193.841C285.59 194 285.915 194.08 286.287 194.08C286.528 194.08 286.749 194.045 286.948 193.977C287.146 193.906 287.318 193.801 287.463 193.662C287.608 193.523 287.719 193.351 287.796 193.146L289.002 193.364C288.905 193.719 288.732 194.03 288.482 194.297C288.234 194.561 287.923 194.767 287.548 194.915C287.176 195.06 286.752 195.132 286.274 195.132Z" fill="white"/>
<path d="M248.205 219.176H255.573V221H246.285V204.2H248.205V219.176ZM263.556 208.304C267.3 208.304 269.964 210.896 269.964 214.664C269.964 218.456 267.3 221.072 263.556 221.072C259.812 221.072 257.148 218.456 257.148 214.664C257.148 210.896 259.812 208.304 263.556 208.304ZM263.556 210.008C260.916 210.008 259.02 211.928 259.02 214.688C259.02 217.472 260.916 219.392 263.556 219.392C266.196 219.392 268.092 217.472 268.092 214.688C268.092 211.928 266.196 210.008 263.556 210.008ZM286.705 221H284.761L281.041 210.728L277.345 221H275.401L270.673 208.352H272.641L276.385 219.056L280.057 208.352H282.025L285.745 219.056L289.441 208.352H291.385L286.705 221Z" fill="white"/>
<rect x="326.989" y="147" width="110.494" height="82" rx="8" fill="#0A2354"/>
<path d="M363.553 186H361.291L359.536 183.465H359.432H357.599V186H355.493V176.9H359.432C361.863 176.9 363.384 178.161 363.384 180.202C363.384 181.567 362.695 182.568 361.512 183.075L363.553 186ZM361.252 180.202C361.252 179.201 360.602 178.616 359.315 178.616H357.599V181.788H359.315C360.602 181.788 361.252 181.19 361.252 180.202ZM367.145 184.31H372.098V186H365.052V176.9H371.929V178.59H367.145V180.566H371.37V182.204H367.145V184.31ZM380.303 176.9H382.396L378.457 186H376.377L372.451 176.9H374.726L377.495 183.4L380.303 176.9ZM383.156 186V176.9H385.262V186H383.156ZM389.515 184.31H394.468V186H387.422V176.9H394.299V178.59H389.515V180.566H393.74V182.204H389.515V184.31ZM407.755 176.9H409.77L406.793 186H404.531L402.529 179.838L400.462 186H398.213L395.223 176.9H397.407L399.461 183.296L401.606 176.9H403.556L405.636 183.348L407.755 176.9ZM368.721 202V194.616H365.809V192.9H373.739V194.616H370.827V202H368.721ZM376.965 200.31H381.918V202H374.872V192.9H381.749V194.59H376.965V196.566H381.19V198.204H376.965V200.31ZM386.584 202.156C385.141 202.156 383.685 201.727 382.879 201.103L383.594 199.517C384.361 200.076 385.505 200.466 386.597 200.466C387.845 200.466 388.352 200.05 388.352 199.491C388.352 197.788 383.061 198.958 383.061 195.578C383.061 194.031 384.309 192.744 386.896 192.744C388.04 192.744 389.21 193.017 390.055 193.55L389.405 195.149C388.56 194.668 387.689 194.434 386.883 194.434C385.635 194.434 385.154 194.902 385.154 195.474C385.154 197.151 390.445 195.994 390.445 199.335C390.445 200.856 389.184 202.156 386.584 202.156ZM393.642 202V194.616H390.73V192.9H398.66V194.616H395.748V202H393.642Z" fill="white"/>
</g>
<g filter="url(#filter1_d_10_919)">
<rect x="66" y="293" width="406" height="200.518" rx="16" fill="white" shape-rendering="crispEdges"/>
<path d="M100.912 335H99.168L96.752 331.56C96.528 331.576 96.288 331.592 96.048 331.592H93.28V335H91.68V323.8H96.048C98.96 323.8 100.72 325.272 100.72 327.704C100.72 329.432 99.824 330.68 98.256 331.24L100.912 335ZM96 330.232C98.048 330.232 99.12 329.304 99.12 327.704C99.12 326.104 98.048 325.192 96 325.192H93.28V330.232H96ZM110.745 330.808C110.745 330.936 110.729 331.128 110.713 331.272H103.833C104.025 332.76 105.225 333.752 106.905 333.752C107.897 333.752 108.729 333.416 109.353 332.728L110.201 333.72C109.433 334.616 108.265 335.096 106.857 335.096C104.121 335.096 102.297 333.288 102.297 330.76C102.297 328.248 104.105 326.44 106.553 326.44C109.001 326.44 110.745 328.2 110.745 330.808ZM106.553 327.736C105.081 327.736 103.993 328.728 103.833 330.168H109.273C109.113 328.744 108.041 327.736 106.553 327.736ZM115.732 326.44C118.052 326.44 119.364 327.56 119.364 329.88V335H117.908V333.88C117.396 334.648 116.452 335.096 115.124 335.096C113.204 335.096 111.988 334.072 111.988 332.6C111.988 331.24 112.868 330.12 115.396 330.12H117.828V329.816C117.828 328.52 117.076 327.768 115.556 327.768C114.548 327.768 113.524 328.12 112.868 328.68L112.228 327.528C113.108 326.824 114.372 326.44 115.732 326.44ZM115.38 333.912C116.532 333.912 117.444 333.384 117.828 332.408V331.224H115.46C113.94 331.224 113.508 331.816 113.508 332.536C113.508 333.384 114.212 333.912 115.38 333.912ZM128.717 323.128H130.253V335H128.781V333.656C128.093 334.616 127.005 335.096 125.757 335.096C123.277 335.096 121.469 333.352 121.469 330.76C121.469 328.168 123.277 326.44 125.757 326.44C126.957 326.44 128.013 326.888 128.717 327.8V323.128ZM125.885 333.752C127.501 333.752 128.733 332.568 128.733 330.76C128.733 328.952 127.501 327.784 125.885 327.784C124.253 327.784 123.021 328.952 123.021 330.76C123.021 332.568 124.253 333.752 125.885 333.752ZM133.927 324.888C133.335 324.888 132.887 324.456 132.887 323.896C132.887 323.336 133.335 322.888 133.927 322.888C134.519 322.888 134.967 323.32 134.967 323.864C134.967 324.44 134.535 324.888 133.927 324.888ZM133.159 335V326.52H134.695V335H133.159ZM142.156 326.44C144.22 326.44 145.676 327.624 145.676 330.12V335H144.14V330.296C144.14 328.632 143.308 327.816 141.852 327.816C140.22 327.816 139.164 328.792 139.164 330.632V335H137.628V326.52H139.1V327.8C139.724 326.936 140.812 326.44 142.156 326.44ZM156.229 330.808C156.229 330.936 156.213 331.128 156.197 331.272H149.317C149.509 332.76 150.709 333.752 152.389 333.752C153.381 333.752 154.213 333.416 154.837 332.728L155.685 333.72C154.917 334.616 153.749 335.096 152.341 335.096C149.605 335.096 147.781 333.288 147.781 330.76C147.781 328.248 149.589 326.44 152.037 326.44C154.485 326.44 156.229 328.2 156.229 330.808ZM152.037 327.736C150.565 327.736 149.477 328.728 149.317 330.168H154.757C154.597 328.744 153.525 327.736 152.037 327.736ZM160.794 335.096C159.386 335.096 157.994 334.664 157.29 334.104L157.93 332.888C158.65 333.4 159.802 333.768 160.906 333.768C162.33 333.768 162.922 333.336 162.922 332.616C162.922 330.712 157.562 332.36 157.562 328.984C157.562 327.464 158.922 326.44 161.098 326.44C162.202 326.44 163.45 326.728 164.186 327.208L163.53 328.424C162.762 327.928 161.914 327.752 161.082 327.752C159.738 327.752 159.082 328.248 159.082 328.92C159.082 330.92 164.458 329.288 164.458 332.584C164.458 334.12 163.05 335.096 160.794 335.096ZM168.81 335.096C167.402 335.096 166.01 334.664 165.306 334.104L165.946 332.888C166.666 333.4 167.818 333.768 168.922 333.768C170.346 333.768 170.938 333.336 170.938 332.616C170.938 330.712 165.578 332.36 165.578 328.984C165.578 327.464 166.938 326.44 169.114 326.44C170.218 326.44 171.466 326.728 172.202 327.208L171.546 328.424C170.778 327.928 169.93 327.752 169.098 327.752C167.754 327.752 167.098 328.248 167.098 328.92C167.098 330.92 172.474 329.288 172.474 332.584C172.474 334.12 171.066 335.096 168.81 335.096ZM180.514 333.608H187.042V335H178.914V323.8H186.818V325.192H180.514V328.632H186.13V329.992H180.514V333.608ZM196.374 335H194.63L192.182 331.752L189.702 335H187.99L191.334 330.664L188.15 326.52H189.862L192.198 329.576L194.518 326.52H196.198L192.998 330.664L196.374 335ZM200.982 326.44C203.302 326.44 204.614 327.56 204.614 329.88V335H203.158V333.88C202.646 334.648 201.702 335.096 200.374 335.096C198.454 335.096 197.238 334.072 197.238 332.6C197.238 331.24 198.118 330.12 200.646 330.12H203.078V329.816C203.078 328.52 202.326 327.768 200.806 327.768C199.798 327.768 198.774 328.12 198.118 328.68L197.478 327.528C198.358 326.824 199.622 326.44 200.982 326.44ZM200.63 333.912C201.782 333.912 202.694 333.384 203.078 332.408V331.224H200.71C199.19 331.224 198.758 331.816 198.758 332.536C198.758 333.384 199.462 333.912 200.63 333.912ZM218.064 326.44C220.128 326.44 221.536 327.624 221.536 330.12V335H220V330.296C220 328.632 219.2 327.816 217.808 327.816C216.272 327.816 215.264 328.792 215.264 330.632V335H213.728V330.296C213.728 328.632 212.928 327.816 211.536 327.816C210 327.816 208.992 328.792 208.992 330.632V335H207.456V326.52H208.928V327.784C209.536 326.92 210.576 326.44 211.856 326.44C213.152 326.44 214.24 326.952 214.8 328.008C215.44 327.048 216.624 326.44 218.064 326.44ZM230.099 333.608H235.843V335H227.795V333.912L232.355 329.512C233.539 328.36 233.763 327.656 233.763 326.952C233.763 325.8 232.947 325.096 231.379 325.096C230.179 325.096 229.203 325.48 228.515 326.312L227.427 325.368C228.291 324.296 229.779 323.672 231.523 323.672C233.859 323.672 235.363 324.872 235.363 326.792C235.363 327.88 235.043 328.856 233.523 330.312L230.099 333.608Z" fill="#A7ABC0"/>
<rect x="249" y="322.693" width="199" height="13.8067" rx="6.90337" fill="#A7ABC0" fill-opacity="0.22"/>
<rect x="249.1" y="322.5" width="155.054" height="13.8067" rx="6.90337" fill="#016AFF"/>
<rect x="90" y="358" width="358" height="111.518" rx="12" fill="#0069FF" fill-opacity="0.66"/>
<rect x="98" y="374" width="110.494" height="79.5176" rx="8" fill="white" fill-opacity="0.12"/>
<g clip-path="url(#clip1_10_919)">
<path d="M148.055 382.759C148.277 382.759 148.491 382.847 148.649 383.005C148.806 383.162 148.895 383.376 148.895 383.599V385.17H157.915V383.61C157.915 383.387 158.004 383.173 158.161 383.016C158.319 382.858 158.532 382.77 158.755 382.77C158.978 382.77 159.192 382.858 159.349 383.016C159.507 383.173 159.595 383.387 159.595 383.61V385.17H162.847C163.483 385.17 164.094 385.422 164.544 385.872C164.994 386.322 165.247 386.932 165.247 387.568V404.36C165.247 404.996 164.994 405.606 164.544 406.056C164.094 406.506 163.483 406.759 162.847 406.759H143.647C143.011 406.759 142.4 406.506 141.95 406.056C141.5 405.606 141.247 404.996 141.247 404.36V387.568C141.247 386.932 141.5 386.322 141.95 385.872C142.4 385.422 143.011 385.17 143.647 385.17H147.215V383.598C147.215 383.375 147.304 383.162 147.461 383.004C147.619 382.847 147.832 382.759 148.055 382.759ZM142.927 392.049V404.36C142.927 404.455 142.946 404.548 142.982 404.636C143.018 404.723 143.071 404.802 143.138 404.869C143.205 404.936 143.284 404.989 143.372 405.025C143.459 405.061 143.553 405.08 143.647 405.08H162.847C162.942 405.08 163.035 405.061 163.123 405.025C163.21 404.989 163.289 404.936 163.356 404.869C163.423 404.802 163.476 404.723 163.512 404.636C163.548 404.548 163.567 404.455 163.567 404.36V392.066L142.927 392.049ZM149.247 400.302V402.301H147.247V400.302H149.247ZM154.247 400.302V402.301H152.247V400.302H154.247ZM159.247 400.302V402.301H157.247V400.302H159.247ZM149.247 395.529V397.528H147.247V395.529H149.247ZM154.247 395.529V397.528H152.247V395.529H154.247ZM159.247 395.529V397.528H157.247V395.529H159.247ZM147.215 386.848H143.647C143.553 386.848 143.459 386.867 143.372 386.903C143.284 386.939 143.205 386.992 143.138 387.059C143.071 387.126 143.018 387.206 142.982 387.293C142.946 387.38 142.927 387.474 142.927 387.568V390.37L163.567 390.387V387.568C163.567 387.474 163.548 387.38 163.512 387.293C163.476 387.206 163.423 387.126 163.356 387.059C163.289 386.992 163.21 386.939 163.123 386.903C163.035 386.867 162.942 386.848 162.847 386.848H159.595V387.963C159.595 388.186 159.507 388.4 159.349 388.557C159.192 388.715 158.978 388.803 158.755 388.803C158.532 388.803 158.319 388.715 158.161 388.557C158.004 388.4 157.915 388.186 157.915 387.963V386.848H148.895V387.952C148.895 388.175 148.806 388.389 148.649 388.546C148.491 388.704 148.277 388.792 148.055 388.792C147.832 388.792 147.618 388.704 147.461 388.546C147.303 388.389 147.215 388.175 147.215 387.952V386.848Z" fill="white"/>
</g>
<path d="M143.206 418.759V410.032H148.618V411.165H144.523V413.824H148.23V414.953H144.523V418.759H143.206ZM152.475 418.891C151.831 418.891 151.275 418.753 150.809 418.478C150.346 418.199 149.988 417.809 149.735 417.306C149.485 416.8 149.36 416.208 149.36 415.529C149.36 414.858 149.485 414.267 149.735 413.756C149.988 413.245 150.34 412.845 150.792 412.559C151.247 412.272 151.778 412.128 152.386 412.128C152.755 412.128 153.113 412.189 153.46 412.311C153.806 412.434 154.117 412.625 154.393 412.887C154.669 413.148 154.886 413.487 155.045 413.905C155.204 414.32 155.284 414.824 155.284 415.418V415.87H150.081V414.915H154.035C154.035 414.58 153.967 414.283 153.831 414.024C153.694 413.763 153.502 413.557 153.255 413.407C153.011 413.256 152.724 413.181 152.394 413.181C152.036 413.181 151.724 413.269 151.457 413.445C151.193 413.618 150.988 413.845 150.843 414.127C150.701 414.405 150.63 414.708 150.63 415.034V415.78C150.63 416.218 150.707 416.59 150.86 416.897C151.017 417.203 151.234 417.438 151.512 417.6C151.791 417.759 152.116 417.838 152.488 417.838C152.73 417.838 152.95 417.804 153.149 417.736C153.348 417.665 153.519 417.56 153.664 417.421C153.809 417.282 153.92 417.11 153.997 416.905L155.203 417.122C155.106 417.478 154.933 417.789 154.683 418.056C154.436 418.32 154.125 418.526 153.75 418.674C153.377 418.818 152.953 418.891 152.475 418.891ZM156.8 418.759V410.032H158.074V413.274H158.15C158.224 413.138 158.331 412.98 158.47 412.801C158.609 412.622 158.802 412.466 159.05 412.333C159.297 412.196 159.623 412.128 160.03 412.128C160.558 412.128 161.03 412.262 161.445 412.529C161.859 412.796 162.185 413.181 162.42 413.684C162.659 414.186 162.778 414.791 162.778 415.499C162.778 416.206 162.66 416.813 162.425 417.318C162.189 417.821 161.865 418.209 161.453 418.482C161.041 418.752 160.571 418.887 160.043 418.887C159.645 418.887 159.32 418.82 159.067 418.686C158.817 418.553 158.621 418.397 158.479 418.218C158.337 418.039 158.227 417.88 158.15 417.74H158.044V418.759H156.8ZM158.048 415.486C158.048 415.946 158.115 416.35 158.248 416.696C158.382 417.043 158.575 417.314 158.828 417.51C159.081 417.703 159.391 417.8 159.757 417.8C160.138 417.8 160.456 417.699 160.712 417.497C160.967 417.293 161.16 417.016 161.291 416.666C161.425 416.317 161.491 415.924 161.491 415.486C161.491 415.054 161.426 414.666 161.295 414.323C161.168 413.979 160.974 413.708 160.716 413.509C160.46 413.31 160.141 413.21 159.757 413.21C159.388 413.21 159.075 413.306 158.82 413.496C158.567 413.686 158.375 413.952 158.244 414.293C158.114 414.634 158.048 415.032 158.048 415.486Z" fill="white"/>
<path d="M146.959 444.759H145.063V429.783H141.655V427.959H146.959V444.759ZM156.657 444.831C155.121 444.831 153.273 444.351 151.905 443.631L152.673 442.095C153.777 442.743 155.241 443.127 156.537 443.127C160.137 443.127 161.937 440.175 161.673 435.639C160.929 437.607 159.129 438.711 156.657 438.711C153.369 438.711 151.329 436.671 151.329 433.431C151.329 429.999 153.561 427.863 157.017 427.863C161.097 427.863 163.569 430.815 163.569 435.975C163.569 441.327 160.929 444.831 156.657 444.831ZM156.993 437.079C159.657 437.079 161.241 435.303 161.241 433.311C161.241 431.703 160.017 429.639 157.137 429.639C154.761 429.639 153.129 431.055 153.129 433.455C153.129 435.687 154.617 437.079 156.993 437.079Z" fill="white"/>
<rect x="212.494" y="374" width="110.494" height="79.5176" rx="8" fill="#51C6C6" fill-opacity="0.44"/>
<path d="M263.973 397.41C264.059 397.346 264.156 397.299 264.261 397.273C264.365 397.247 264.473 397.242 264.579 397.259C264.685 397.276 264.787 397.314 264.878 397.371C264.969 397.428 265.047 397.503 265.108 397.591C265.289 397.79 265.493 397.966 265.717 398.114C266.316 398.512 267.021 398.721 267.741 398.714C268.65 398.714 269.322 398.413 269.765 398.116C269.989 397.968 270.193 397.792 270.374 397.593L270.396 397.566C270.523 397.397 270.713 397.286 270.922 397.257C271.132 397.228 271.345 397.283 271.513 397.41C271.682 397.538 271.793 397.728 271.822 397.937C271.852 398.147 271.796 398.359 271.669 398.528L271.64 398.564C271.626 398.581 271.608 398.605 271.585 398.631C271.538 398.684 271.473 398.758 271.389 398.842C271.163 399.066 270.915 399.268 270.65 399.443C269.788 400.015 268.775 400.317 267.741 400.309C266.707 400.317 265.694 400.015 264.832 399.443C264.567 399.267 264.319 399.066 264.093 398.842C264.004 398.754 263.921 398.661 263.842 398.564C263.567 398.211 263.605 397.687 263.973 397.41Z" fill="white"/>
<path d="M267.741 383.063C274.2 383.063 279.437 388.3 279.437 394.759C279.437 401.218 274.2 406.454 267.741 406.454C261.282 406.454 256.046 401.218 256.046 394.759C256.046 388.3 261.282 383.063 267.741 383.063ZM257.641 394.759C257.641 397.438 258.705 400.007 260.599 401.901C262.493 403.795 265.062 404.86 267.741 404.86C270.42 404.86 272.989 403.795 274.884 401.901C276.778 400.007 277.842 397.438 277.842 394.759C277.842 392.08 276.778 389.511 274.884 387.617C272.989 385.722 270.42 384.658 267.741 384.658C265.062 384.658 262.493 385.722 260.599 387.617C258.705 389.511 257.641 392.08 257.641 394.759Z" fill="white"/>
<path d="M264.551 393.43C264.551 393.782 264.411 394.12 264.162 394.37C263.913 394.619 263.575 394.759 263.222 394.759C262.87 394.759 262.532 394.619 262.283 394.37C262.033 394.12 261.893 393.782 261.893 393.43C261.893 393.077 262.033 392.739 262.283 392.49C262.532 392.241 262.87 392.101 263.222 392.101C263.575 392.101 263.913 392.241 264.162 392.49C264.411 392.739 264.551 393.077 264.551 393.43ZM272.26 394.759C272.612 394.759 272.95 394.619 273.2 394.37C273.449 394.12 273.589 393.782 273.589 393.43C273.589 393.077 273.449 392.739 273.2 392.49C272.95 392.241 272.612 392.101 272.26 392.101C271.907 392.101 271.569 392.241 271.32 392.49C271.071 392.739 270.931 393.077 270.931 393.43C270.931 393.782 271.071 394.12 271.32 394.37C271.569 394.619 271.907 394.759 272.26 394.759Z" fill="white"/>
<path d="M253.949 413.628H252.619C252.568 413.344 252.473 413.094 252.334 412.878C252.194 412.663 252.024 412.479 251.822 412.329C251.62 412.178 251.395 412.065 251.145 411.988C250.897 411.911 250.635 411.873 250.356 411.873C249.853 411.873 249.403 411.999 249.005 412.252C248.611 412.505 248.298 412.876 248.068 413.364C247.841 413.853 247.727 414.449 247.727 415.154C247.727 415.864 247.841 416.464 248.068 416.952C248.298 417.441 248.612 417.81 249.01 418.06C249.407 418.31 249.855 418.435 250.352 418.435C250.628 418.435 250.889 418.398 251.136 418.324C251.386 418.248 251.612 418.136 251.814 417.988C252.015 417.84 252.186 417.66 252.325 417.447C252.467 417.231 252.565 416.984 252.619 416.705L253.949 416.709C253.878 417.138 253.74 417.533 253.535 417.894C253.334 418.252 253.074 418.562 252.755 418.823C252.44 419.082 252.079 419.282 251.673 419.424C251.267 419.566 250.824 419.637 250.343 419.637C249.588 419.637 248.915 419.458 248.324 419.1C247.733 418.739 247.267 418.224 246.926 417.553C246.588 416.883 246.419 416.083 246.419 415.154C246.419 414.222 246.589 413.422 246.93 412.755C247.271 412.084 247.737 411.57 248.328 411.212C248.919 410.851 249.591 410.671 250.343 410.671C250.807 410.671 251.238 410.738 251.639 410.871C252.042 411.002 252.405 411.195 252.726 411.451C253.047 411.704 253.312 412.013 253.522 412.38C253.733 412.743 253.875 413.16 253.949 413.628ZM256.696 415.631V419.518H255.422V410.79H256.679V414.038H256.76C256.913 413.685 257.148 413.405 257.463 413.198C257.778 412.991 258.19 412.887 258.699 412.887C259.148 412.887 259.54 412.979 259.875 413.164C260.213 413.349 260.475 413.624 260.659 413.991C260.847 414.354 260.94 414.809 260.94 415.354V419.518H259.666V415.508C259.666 415.028 259.543 414.655 259.296 414.391C259.048 414.124 258.705 413.991 258.264 413.991C257.963 413.991 257.693 414.055 257.455 414.182C257.219 414.31 257.033 414.498 256.896 414.745C256.763 414.989 256.696 415.285 256.696 415.631ZM264.546 419.663C264.131 419.663 263.756 419.586 263.421 419.432C263.085 419.276 262.82 419.05 262.624 418.755C262.43 418.459 262.334 418.097 262.334 417.668C262.334 417.299 262.405 416.995 262.547 416.756C262.689 416.518 262.881 416.329 263.122 416.19C263.364 416.05 263.634 415.945 263.932 415.874C264.23 415.803 264.534 415.749 264.844 415.712C265.236 415.667 265.554 415.63 265.798 415.601C266.043 415.57 266.22 415.52 266.331 415.452C266.442 415.384 266.497 415.273 266.497 415.12V415.09C266.497 414.718 266.392 414.43 266.182 414.225C265.975 414.02 265.665 413.918 265.253 413.918C264.824 413.918 264.486 414.013 264.239 414.204C263.994 414.391 263.825 414.6 263.732 414.83L262.534 414.557C262.676 414.16 262.884 413.839 263.156 413.594C263.432 413.347 263.749 413.168 264.107 413.057C264.465 412.944 264.841 412.887 265.236 412.887C265.497 412.887 265.774 412.918 266.067 412.981C266.362 413.04 266.638 413.151 266.894 413.313C267.152 413.475 267.364 413.707 267.528 414.008C267.693 414.306 267.776 414.694 267.776 415.171V419.518H266.531V418.623H266.48C266.398 418.788 266.274 418.949 266.109 419.109C265.945 419.268 265.733 419.4 265.475 419.505C265.216 419.61 264.906 419.663 264.546 419.663ZM264.823 418.64C265.175 418.64 265.476 418.57 265.726 418.431C265.979 418.292 266.171 418.11 266.301 417.886C266.435 417.658 266.502 417.415 266.502 417.157V416.313C266.456 416.359 266.368 416.401 266.237 416.441C266.109 416.478 265.963 416.511 265.798 416.539C265.634 416.565 265.473 416.589 265.317 416.611C265.161 416.631 265.03 416.648 264.925 416.663C264.678 416.694 264.452 416.746 264.247 416.82C264.046 416.894 263.884 417.001 263.761 417.14C263.642 417.276 263.582 417.458 263.582 417.685C263.582 418.001 263.699 418.239 263.932 418.401C264.165 418.56 264.462 418.64 264.823 418.64ZM270.747 415.631V419.518H269.473V412.972H270.696V414.038H270.777C270.927 413.691 271.163 413.413 271.484 413.202C271.808 412.992 272.216 412.887 272.707 412.887C273.153 412.887 273.544 412.981 273.879 413.168C274.214 413.353 274.474 413.628 274.659 413.995C274.843 414.361 274.936 414.815 274.936 415.354V419.518H273.662V415.508C273.662 415.033 273.538 414.663 273.291 414.395C273.044 414.126 272.704 413.991 272.272 413.991C271.977 413.991 271.714 414.055 271.484 414.182C271.257 414.31 271.076 414.498 270.943 414.745C270.812 414.989 270.747 415.285 270.747 415.631ZM279.402 419.65C278.768 419.65 278.223 419.506 277.765 419.219C277.311 418.93 276.961 418.53 276.717 418.022C276.473 417.513 276.351 416.931 276.351 416.275C276.351 415.61 276.476 415.023 276.726 414.515C276.976 414.003 277.328 413.604 277.782 413.317C278.237 413.03 278.772 412.887 279.389 412.887C279.886 412.887 280.329 412.979 280.718 413.164C281.108 413.346 281.422 413.601 281.66 413.931C281.902 414.261 282.045 414.645 282.091 415.086H280.851C280.782 414.779 280.626 414.515 280.382 414.293C280.14 414.072 279.816 413.961 279.41 413.961C279.055 413.961 278.744 414.055 278.477 414.242C278.213 414.427 278.007 414.691 277.859 415.035C277.711 415.376 277.638 415.779 277.638 416.245C277.638 416.722 277.71 417.134 277.855 417.481C278 417.827 278.204 418.096 278.468 418.286C278.736 418.476 279.049 418.572 279.41 418.572C279.652 418.572 279.87 418.528 280.066 418.44C280.265 418.349 280.432 418.219 280.565 418.052C280.701 417.884 280.797 417.682 280.851 417.447H282.091C282.045 417.87 281.907 418.248 281.677 418.58C281.447 418.913 281.139 419.174 280.753 419.364C280.369 419.555 279.919 419.65 279.402 419.65ZM286.274 419.65C285.629 419.65 285.074 419.512 284.608 419.236C284.145 418.958 283.787 418.567 283.534 418.065C283.284 417.559 283.159 416.967 283.159 416.288C283.159 415.617 283.284 415.026 283.534 414.515C283.787 414.003 284.139 413.604 284.591 413.317C285.046 413.03 285.577 412.887 286.185 412.887C286.554 412.887 286.912 412.948 287.259 413.07C287.605 413.192 287.916 413.384 288.192 413.645C288.467 413.907 288.685 414.246 288.844 414.664C289.003 415.079 289.082 415.583 289.082 416.177V416.628H283.879V415.674H287.834C287.834 415.339 287.766 415.042 287.629 414.783C287.493 414.522 287.301 414.316 287.054 414.165C286.81 414.015 286.523 413.94 286.193 413.94C285.835 413.94 285.523 414.028 285.256 414.204C284.992 414.377 284.787 414.604 284.642 414.886C284.5 415.164 284.429 415.467 284.429 415.793V416.539C284.429 416.976 284.506 417.349 284.659 417.655C284.815 417.962 285.033 418.197 285.311 418.359C285.59 418.518 285.915 418.597 286.287 418.597C286.528 418.597 286.749 418.563 286.948 418.495C287.146 418.424 287.318 418.319 287.463 418.18C287.608 418.04 287.719 417.868 287.796 417.664L289.002 417.881C288.905 418.236 288.732 418.547 288.482 418.815C288.234 419.079 287.923 419.285 287.548 419.432C287.176 419.577 286.752 419.65 286.274 419.65Z" fill="white"/>
<path d="M255.753 445.518H253.833V438.126H243.705V445.518H241.785V428.718H243.705V436.302H253.833V428.718H255.753V445.518ZM261.488 427.95C262.184 427.95 262.712 428.502 262.712 429.246C262.712 429.99 262.184 430.542 261.488 430.542C260.792 430.542 260.264 429.99 260.264 429.246C260.264 428.502 260.792 427.95 261.488 427.95ZM262.424 445.518H260.576V432.87H262.424V445.518ZM277.99 432.87V444.198C277.99 447.894 275.47 450.222 271.63 450.222C269.638 450.198 267.982 449.55 266.446 448.398L267.31 446.958C268.558 447.99 269.878 448.542 271.558 448.566C274.318 448.566 276.118 446.886 276.118 444.246V442.326C275.23 444.006 273.598 444.966 271.462 444.966C268.054 444.966 265.702 442.446 265.702 438.846C265.702 435.318 268.03 432.822 271.414 432.798C273.574 432.798 275.206 433.758 276.118 435.438V432.87H277.99ZM271.798 443.382C274.318 443.382 276.118 441.51 276.118 438.918C276.118 436.278 274.318 434.43 271.798 434.43C269.254 434.43 267.478 436.302 267.454 438.918C267.478 441.51 269.254 443.382 271.798 443.382ZM289.144 432.798C292.168 432.798 293.944 434.67 293.944 437.718V445.518H292.072V438.222C292.072 435.99 290.728 434.67 288.496 434.67C285.808 434.694 284.224 436.59 284.224 439.302V445.518H282.352V427.71H284.224V435.702C285.088 433.734 286.816 432.822 289.144 432.798Z" fill="white"/>
<rect x="326.989" y="374" width="110.494" height="79.5176" rx="8" fill="#0A2354"/>
<path d="M363.553 411.759H361.291L359.536 409.224H359.432H357.599V411.759H355.493V402.659H359.432C361.863 402.659 363.384 403.92 363.384 405.961C363.384 407.326 362.695 408.327 361.512 408.834L363.553 411.759ZM361.252 405.961C361.252 404.96 360.602 404.375 359.315 404.375H357.599V407.547H359.315C360.602 407.547 361.252 406.949 361.252 405.961ZM367.145 410.069H372.098V411.759H365.052V402.659H371.929V404.349H367.145V406.325H371.37V407.963H367.145V410.069ZM380.303 402.659H382.396L378.457 411.759H376.377L372.451 402.659H374.726L377.495 409.159L380.303 402.659ZM383.156 411.759V402.659H385.262V411.759H383.156ZM389.515 410.069H394.468V411.759H387.422V402.659H394.299V404.349H389.515V406.325H393.74V407.963H389.515V410.069ZM407.755 402.659H409.77L406.793 411.759H404.531L402.529 405.597L400.462 411.759H398.213L395.223 402.659H397.407L399.461 409.055L401.606 402.659H403.556L405.636 409.107L407.755 402.659ZM368.721 427.759V420.375H365.809V418.659H373.739V420.375H370.827V427.759H368.721ZM376.965 426.069H381.918V427.759H374.872V418.659H381.749V420.349H376.965V422.325H381.19V423.963H376.965V426.069ZM386.584 427.915C385.141 427.915 383.685 427.486 382.879 426.862L383.594 425.276C384.361 425.835 385.505 426.225 386.597 426.225C387.845 426.225 388.352 425.809 388.352 425.25C388.352 423.547 383.061 424.717 383.061 421.337C383.061 419.79 384.309 418.503 386.896 418.503C388.04 418.503 389.21 418.776 390.055 419.309L389.405 420.908C388.56 420.427 387.689 420.193 386.883 420.193C385.635 420.193 385.154 420.661 385.154 421.233C385.154 422.91 390.445 421.753 390.445 425.094C390.445 426.615 389.184 427.915 386.584 427.915ZM393.642 427.759V420.375H390.73V418.659H398.66V420.375H395.748V427.759H393.642Z" fill="white"/>
</g>
<defs>
<filter id="filter0_d_10_919" x="44" y="56" width="450" height="247" filterUnits="userSpaceOnUse" color-interpolation-filters="sRGB">
<feFlood flood-opacity="0" result="BackgroundImageFix"/>
<feColorMatrix in="SourceAlpha" type="matrix" values="0 0 0 0 0 0 0 0 0 0 0 0 0 0 0 0 0 0 127 0" result="hardAlpha"/>
<feOffset dy="12"/>
<feGaussianBlur stdDeviation="11"/>
<feComposite in2="hardAlpha" operator="out"/>
<feColorMatrix type="matrix" values="0 0 0 0 0 0 0 0 0 0 0 0 0 0 0 0 0 0 0.06 0"/>
<feBlend mode="normal" in2="BackgroundImageFix" result="effect1_dropShadow_10_919"/>
<feBlend mode="normal" in="SourceGraphic" in2="effect1_dropShadow_10_919" result="shape"/>
</filter>
<filter id="filter1_d_10_919" x="44" y="283" width="450" height="244.518" filterUnits="userSpaceOnUse" color-interpolation-filters="sRGB">
<feFlood flood-opacity="0" result="BackgroundImageFix"/>
<feColorMatrix in="SourceAlpha" type="matrix" values="0 0 0 0 0 0 0 0 0 0 0 0 0 0 0 0 0 0 127 0" result="hardAlpha"/>
<feOffset dy="12"/>
<feGaussianBlur stdDeviation="11"/>
<feComposite in2="hardAlpha" operator="out"/>
<feColorMatrix type="matrix" values="0 0 0 0 0 0 0 0 0 0 0 0 0 0 0 0 0 0 0.06 0"/>
<feBlend mode="normal" in2="BackgroundImageFix" result="effect1_dropShadow_10_919"/>
<feBlend mode="normal" in="SourceGraphic" in2="effect1_dropShadow_10_919" result="shape"/>
</filter>
<clipPath id="clip0_10_919">
<rect width="24" height="24" fill="white" transform="translate(141.247 157)"/>
</clipPath>
<clipPath id="clip1_10_919">
<rect width="24" height="24" fill="white" transform="translate(141.247 382.759)"/>
</clipPath>
</defs>
</svg>
