<svg width="367" height="64" viewBox="0 0 367 64" fill="none" xmlns="http://www.w3.org/2000/svg">
<path fill-rule="evenodd" clip-rule="evenodd" d="M36.3416 15.7335C36.7121 16.4744 36.4118 17.3755 35.6708 17.7459L13.5 28.8313V51.4043C13.5 52.2327 12.8284 52.9043 12 52.9043C11.1716 52.9043 10.5 52.2327 10.5 51.4043V26.9772L34.3292 15.0627C35.0701 14.6922 35.9712 14.9925 36.3416 15.7335Z" fill="black"/>
<path d="M2.28588 25.9042C-0.761962 24.1603 -0.761958 20.6483 2.28588 18.9044L29.6183 3.26573C31.6257 2.11715 34.3743 2.11715 36.3817 3.26573L63.7141 18.9044C66.762 20.6483 66.762 24.1603 63.7141 25.9042L36.3817 41.5429C34.3743 42.6914 31.6257 42.6914 29.6183 41.5429L2.28588 25.9042Z" fill="#0069FF"/>
<path d="M17 36.9188V47.4043C17 49.0611 18.3431 50.4043 20 50.4043H46C47.6569 50.4043 49 49.0611 49 47.4043V36.9188L36.3817 44.4996C34.3743 45.7056 31.6257 45.7056 29.6183 44.4996L17 36.9188Z" fill="#0A0715"/>
<path fill-rule="evenodd" clip-rule="evenodd" d="M25.8638 22.764C26.397 23.7314 26.0449 24.9478 25.0775 25.481L25.0475 25.4975C24.0801 26.0307 22.8636 25.6786 22.3305 24.7112C21.7974 23.7439 22.1494 22.5274 23.1168 21.9943L23.1469 21.9777C24.1143 21.4446 25.3307 21.7966 25.8638 22.764ZM19.8154 26.0973C20.3485 27.0647 19.9965 28.2812 19.0291 28.8143L18.999 28.8309C18.0316 29.364 16.8152 29.012 16.282 28.0446C15.7489 27.0772 16.101 25.8608 17.0683 25.3276L17.0984 25.3111C18.0658 24.7779 19.2822 25.13 19.8154 26.0973ZM13.7669 29.4307C14.3 30.3981 13.948 31.6145 12.9806 32.1476L12.9656 32.1559C11.9982 32.689 10.7818 32.337 10.2486 31.3696C9.7155 30.4022 10.0675 29.1858 11.0349 28.6527L11.05 28.6444C12.0174 28.1113 13.2338 28.4633 13.7669 29.4307Z" fill="white"/>
<path d="M33 25.4043C29.6863 25.4043 27 22.718 27 19.4043C27 16.0906 29.6863 13.4043 33 13.4043C36.3137 13.4043 39 16.0906 39 19.4043C39 22.718 36.3137 25.4043 33 25.4043Z" fill="white"/>
<path d="M36 19.4043C36 21.0612 34.6568 22.4043 33 22.4043C31.3431 22.4043 30 21.0612 30 19.4043C30 17.7474 31.3431 16.4043 33 16.4043C34.6568 16.4043 36 17.7474 36 19.4043Z" fill="#0069FF"/>
<path d="M12 62.4043C8.68629 62.4043 6 59.718 6 56.4043C6 53.0906 8.68629 50.4043 12 50.4043C15.3137 50.4043 18 53.0906 18 56.4043C18 59.718 15.3137 62.4043 12 62.4043Z" fill="#0069FF"/>
<path d="M15 56.4043C15 58.0611 13.6569 59.4043 12 59.4043C10.3431 59.4043 9 58.0611 9 56.4043C9 54.7474 10.3431 53.4043 12 53.4043C13.6569 53.4043 15 54.7474 15 56.4043Z" fill="white"/>
<path d="M108.418 8.89453L105.937 13.7285C105.614 14.373 105.356 14.792 105.163 14.9854C104.97 15.1572 104.701 15.2432 104.357 15.2432C104.164 15.2432 102.993 14.6523 100.845 13.4707C100.071 13.0625 98.9219 12.8584 97.3965 12.8584C95.7852 12.8584 94.5283 13.2988 93.626 14.1797C92.874 14.9316 92.498 15.7695 92.498 16.6934C92.498 17.5527 92.8418 18.2725 93.5293 18.8525C94.1738 19.3896 94.8398 19.7979 95.5273 20.0771C96.2148 20.3564 97.8369 20.8721 100.394 21.624C104.024 22.6982 106.699 24.1592 108.418 26.0068C110.266 28.0049 111.189 30.6582 111.189 33.9668C111.189 39.0156 109.686 42.8398 106.678 45.4395C103.455 48.1895 99.2227 49.5645 93.9805 49.5645C91.6602 49.5645 89.1572 49.167 86.4717 48.3721C83.8076 47.5557 81.5947 46.5352 79.833 45.3105C79.3604 44.9883 79.124 44.5908 79.124 44.1182C79.124 43.9248 79.3174 43.4629 79.7041 42.7324L82.4756 37.5439C82.8193 36.8994 83.0771 36.4912 83.249 36.3193C83.4424 36.1475 83.7109 36.0615 84.0547 36.0615C84.2695 36.0615 84.4951 36.1367 84.7314 36.2871C84.9678 36.4375 85.7197 36.9531 86.9873 37.834C88.8994 39.166 91.166 39.832 93.7871 39.832C95.7637 39.832 97.2139 39.3057 98.1377 38.2529C98.8682 37.415 99.2334 36.5234 99.2334 35.5781C99.2334 34.3535 98.7607 33.3975 97.8154 32.71C96.8701 32.001 95.0547 31.249 92.3691 30.4541C88.1582 29.2295 85.3652 28.0479 83.9902 26.9092C81.6699 24.9971 80.5098 22.0967 80.5098 18.208C80.5098 13.6104 82.0244 9.92578 85.0537 7.1543C87.8037 4.61914 91.209 3.35156 95.2695 3.35156C97.3965 3.35156 99.7168 3.6416 102.23 4.22168C104.766 4.80176 106.785 5.5 108.289 6.31641C108.762 6.5957 108.998 6.97168 108.998 7.44434C108.998 7.68066 108.805 8.16406 108.418 8.89453Z" fill="#0A0715"/>
<path d="M129.591 27.2959V46.2129C129.591 47.1797 129.462 47.792 129.204 48.0498C128.968 48.2861 128.366 48.4043 127.399 48.4043H121.212C120.245 48.4043 119.633 48.2861 119.375 48.0498C119.139 47.792 119.021 47.1797 119.021 46.2129V27.2959H117.731C116.765 27.2959 116.152 27.1777 115.895 26.9414C115.658 26.6836 115.54 26.0713 115.54 25.1045V20.6895C115.54 19.7227 115.658 19.1211 115.895 18.8848C116.152 18.627 116.765 18.498 117.731 18.498H119.021V11.6982C119.021 10.7314 119.139 10.1299 119.375 9.89355C119.633 9.63574 120.245 9.50684 121.212 9.50684H127.399C128.366 9.50684 128.968 9.63574 129.204 9.89355C129.462 10.1299 129.591 10.7314 129.591 11.6982V18.498H133.426C134.393 18.498 134.994 18.627 135.23 18.8848C135.488 19.1211 135.617 19.7227 135.617 20.6895V25.1045C135.617 26.0713 135.488 26.6836 135.23 26.9414C134.994 27.1777 134.393 27.2959 133.426 27.2959H129.591Z" fill="#0A0715"/>
<path d="M150.151 20.6895V35.4492C150.151 39.1445 151.945 40.9922 155.533 40.9922C159.1 40.9922 160.883 39.1445 160.883 35.4492V20.6895C160.883 19.7227 161.001 19.1211 161.237 18.8848C161.495 18.627 162.107 18.498 163.074 18.498H169.262C170.229 18.498 170.83 18.627 171.066 18.8848C171.324 19.1211 171.453 19.7227 171.453 20.6895V37.4795C171.453 41.0674 170.347 43.8711 168.134 45.8906C165.341 48.4258 161.141 49.6934 155.533 49.6934C149.904 49.6934 145.693 48.4258 142.9 45.8906C140.688 43.8711 139.581 41.0674 139.581 37.4795V20.6895C139.581 19.7227 139.699 19.1211 139.936 18.8848C140.193 18.627 140.806 18.498 141.772 18.498H147.96C148.927 18.498 149.528 18.627 149.765 18.8848C150.022 19.1211 150.151 19.7227 150.151 20.6895Z" fill="#0A0715"/>
<path d="M201.778 45.085C199.501 47.9424 196.429 49.3711 192.562 49.3711C190.048 49.3711 187.642 48.7373 185.343 47.4697C182.829 46.0518 180.874 44.1074 179.478 41.6367C178.124 39.2305 177.447 36.4805 177.447 33.3867C177.447 28.2949 179.22 24.2236 182.765 21.1729C185.579 18.7451 188.812 17.5312 192.465 17.5312C194.398 17.5312 196.106 17.8428 197.589 18.4658C199.071 19.0889 200.468 20.0771 201.778 21.4307V2.19141C201.778 1.22461 201.896 0.623047 202.133 0.386719C202.391 0.128906 203.003 0 203.97 0H210.157C211.124 0 211.726 0.128906 211.962 0.386719C212.22 0.623047 212.349 1.22461 212.349 2.19141V46.2129C212.349 47.1797 212.22 47.792 211.962 48.0498C211.726 48.2861 211.124 48.4043 210.157 48.4043H203.97C203.003 48.4043 202.391 48.2861 202.133 48.0498C201.896 47.792 201.778 47.1797 201.778 46.2129V45.085ZM195.269 26.6514C193.378 26.6514 191.767 27.3174 190.435 28.6494C189.103 29.9814 188.437 31.6035 188.437 33.5156C188.437 35.3203 189.103 36.8994 190.435 38.2529C191.745 39.585 193.356 40.251 195.269 40.251C197.159 40.251 198.771 39.585 200.103 38.2529C201.435 36.9209 202.101 35.3203 202.101 33.4512C202.101 31.5391 201.435 29.9385 200.103 28.6494C198.728 27.3174 197.116 26.6514 195.269 26.6514Z" fill="#0A0715"/>
<path d="M230.396 44.3115L217.505 21.2373C217.097 20.5283 216.893 20.0234 216.893 19.7227C216.893 19.2715 217.054 18.96 217.376 18.7881C217.698 18.5947 218.268 18.498 219.084 18.498H226.561C227.42 18.498 227.946 18.5625 228.14 18.6914C228.333 18.7988 228.623 19.2285 229.01 19.9805L236.229 33.8379L243.254 20.0127C243.641 19.2393 243.931 18.7988 244.124 18.6914C244.317 18.5625 244.844 18.498 245.703 18.498H253.019C253.835 18.498 254.404 18.5947 254.727 18.7881C255.049 18.96 255.21 19.2715 255.21 19.7227C255.21 20.0234 255.027 20.5176 254.662 21.2051L232.877 61.875C232.49 62.627 232.189 63.0566 231.975 63.1641C231.781 63.293 231.266 63.3574 230.428 63.3574H223.306C222.532 63.3574 222.027 63.3037 221.791 63.1963C221.34 62.9814 221.114 62.627 221.114 62.1328C221.114 61.8535 221.308 61.3594 221.694 60.6504L230.396 44.3115Z" fill="#0A0715"/>
<path d="M282.409 6.60645V34.8369C282.409 37.8447 282.033 40.1328 281.281 41.7012C279.971 44.3652 277.973 46.417 275.287 47.8564C273.096 49.0166 270.679 49.5967 268.036 49.5967C264.019 49.5967 260.688 48.1035 258.046 45.1172C257.315 44.2793 256.95 43.6562 256.95 43.248C256.95 42.8828 257.283 42.3564 257.949 41.6689L261.945 37.5762C262.611 36.8887 263.127 36.5449 263.492 36.5449C263.814 36.5449 264.19 36.8994 264.62 37.6084C265.458 39.0479 266.5 39.7676 267.746 39.7676C269.916 39.7676 271.001 38.0703 271.001 34.6758L270.969 32.2266V6.60645C270.969 5.63965 271.087 5.03809 271.323 4.80176C271.581 4.54395 272.193 4.41504 273.16 4.41504H280.218C281.185 4.41504 281.786 4.54395 282.022 4.80176C282.28 5.03809 282.409 5.63965 282.409 6.60645Z" fill="#0069FF"/>
<path d="M313.798 45.085C311.542 47.9424 308.47 49.3711 304.581 49.3711C302.067 49.3711 299.672 48.7373 297.395 47.4697C294.859 46.0518 292.894 44.1074 291.497 41.6367C290.144 39.2305 289.467 36.4805 289.467 33.3867C289.467 28.2949 291.239 24.2236 294.784 21.1729C297.599 18.7451 300.832 17.5312 304.484 17.5312C306.418 17.5312 308.126 17.8428 309.608 18.4658C311.112 19.0889 312.509 20.0771 313.798 21.4307V20.6895C313.798 19.7227 313.927 19.1211 314.185 18.8848C314.442 18.627 315.055 18.498 316.021 18.498H322.177C323.144 18.498 323.745 18.627 323.981 18.8848C324.239 19.1211 324.368 19.7227 324.368 20.6895V46.2129C324.368 47.1797 324.239 47.792 323.981 48.0498C323.745 48.2861 323.144 48.4043 322.177 48.4043H316.021C315.055 48.4043 314.442 48.2861 314.185 48.0498C313.927 47.792 313.798 47.1797 313.798 46.2129V45.085ZM307.288 26.6514C305.397 26.6514 303.786 27.3174 302.454 28.6494C301.122 29.9814 300.456 31.6035 300.456 33.5156C300.456 35.3203 301.122 36.8994 302.454 38.2529C303.765 39.585 305.376 40.251 307.288 40.251C309.179 40.251 310.79 39.585 312.122 38.2529C313.454 36.9209 314.12 35.3203 314.12 33.4512C314.12 31.5391 313.454 29.9385 312.122 28.6494C310.747 27.3174 309.136 26.6514 307.288 26.6514Z" fill="#0069FF"/>
<path d="M342.157 21.4307C343.296 20.249 344.402 19.4004 345.477 18.8848C347.324 17.9824 349.322 17.5312 351.471 17.5312C355.854 17.5312 359.538 19.1855 362.524 22.4941C365.167 25.416 366.488 29.0469 366.488 33.3867C366.488 38.4355 364.759 42.4854 361.3 45.5361C358.399 48.0928 355.091 49.3711 351.374 49.3711C347.507 49.3711 344.435 47.9424 342.157 45.085V46.2129C342.157 47.1797 342.028 47.792 341.771 48.0498C341.534 48.2861 340.933 48.4043 339.966 48.4043H333.778C332.812 48.4043 332.199 48.2861 331.941 48.0498C331.705 47.792 331.587 47.1797 331.587 46.2129V2.19141C331.587 1.22461 331.705 0.623047 331.941 0.386719C332.199 0.128906 332.812 0 333.778 0H339.966C340.933 0 341.534 0.128906 341.771 0.386719C342.028 0.623047 342.157 1.22461 342.157 2.19141V21.4307ZM348.699 26.6514C346.809 26.6514 345.187 27.3174 343.833 28.6494C342.501 29.9814 341.835 31.582 341.835 33.4512C341.835 35.3203 342.501 36.9209 343.833 38.2529C345.165 39.585 346.776 40.251 348.667 40.251C350.579 40.251 352.19 39.585 353.501 38.2529C354.833 36.8994 355.499 35.2666 355.499 33.3545C355.499 31.5283 354.822 29.96 353.469 28.6494C352.137 27.3174 350.547 26.6514 348.699 26.6514Z" fill="#0069FF"/>
</svg>
