<svg width="539" height="429" viewBox="0 0 539 429" fill="none" xmlns="http://www.w3.org/2000/svg">
<rect x="0.5" y="0.517578" width="538" height="428.359" rx="24" fill="#EEF2FF"/>
<path d="M262.95 128.197C262.95 162.262 235.335 189.877 201.27 189.877C167.205 189.877 139.59 162.262 139.59 128.197C139.59 94.1325 167.205 66.5176 201.27 66.5176C235.335 66.5176 262.95 94.1325 262.95 128.197ZM161.717 128.197C161.717 150.041 179.426 167.75 201.27 167.75C223.114 167.75 240.823 150.041 240.823 128.197C240.823 106.353 223.114 88.6447 201.27 88.6447C179.426 88.6447 161.717 106.353 161.717 128.197Z" fill="white"/>
<path d="M200.178 66.5176C214.453 66.5176 228.286 71.4688 239.319 80.5271C250.351 89.5854 257.9 102.19 260.678 116.192C263.457 130.193 261.293 144.725 254.555 157.31C247.818 169.895 236.923 179.753 223.73 185.203L215.281 164.753C223.741 161.258 230.727 154.936 235.048 146.866C239.369 138.796 240.756 129.477 238.975 120.499C237.193 111.52 232.352 103.437 225.277 97.6284C218.203 91.8197 209.332 88.6447 200.178 88.6447V66.5176Z" fill="#0069FF"/>
<rect x="156.708" y="83.6343" width="89.3212" height="89.3212" rx="44.6606" fill="#EEF2FF"/>
<path d="M192.743 129.504H190.3V132.713H189.044V129.504H182.154V128.596L188.626 120.502H190.021L183.776 128.387H189.079V125.561H190.3V128.387H192.743V129.504ZM201.062 126.311C201.83 126.567 202.417 126.951 202.824 127.463C203.243 127.974 203.452 128.591 203.452 129.312C203.452 130.021 203.26 130.643 202.876 131.178C202.493 131.702 201.94 132.109 201.219 132.399C200.51 132.678 199.672 132.818 198.707 132.818C197.242 132.818 196.09 132.504 195.253 131.876C194.416 131.248 193.997 130.393 193.997 129.312C193.997 128.579 194.195 127.963 194.59 127.463C194.997 126.951 195.584 126.567 196.352 126.311C195.724 126.067 195.247 125.718 194.922 125.264C194.596 124.799 194.433 124.253 194.433 123.625C194.433 122.636 194.817 121.851 195.584 121.27C196.364 120.688 197.405 120.397 198.707 120.397C199.568 120.397 200.318 120.531 200.957 120.799C201.609 121.054 202.115 121.427 202.475 121.915C202.836 122.404 203.016 122.973 203.016 123.625C203.016 124.253 202.847 124.799 202.51 125.264C202.173 125.718 201.69 126.067 201.062 126.311ZM195.689 123.66C195.689 124.334 195.957 124.869 196.492 125.264C197.027 125.66 197.765 125.858 198.707 125.858C199.649 125.858 200.388 125.66 200.923 125.264C201.469 124.869 201.742 124.34 201.742 123.677C201.742 122.991 201.463 122.45 200.905 122.055C200.359 121.659 199.626 121.462 198.707 121.462C197.777 121.462 197.038 121.659 196.492 122.055C195.957 122.45 195.689 122.985 195.689 123.66ZM198.707 131.754C199.789 131.754 200.632 131.533 201.237 131.091C201.853 130.649 202.161 130.05 202.161 129.294C202.161 128.538 201.853 127.945 201.237 127.515C200.632 127.073 199.789 126.852 198.707 126.852C197.637 126.852 196.794 127.073 196.178 127.515C195.573 127.945 195.27 128.538 195.27 129.294C195.27 130.062 195.573 130.667 196.178 131.108C196.782 131.539 197.626 131.754 198.707 131.754ZM207.603 127.044C206.777 127.044 206.108 126.741 205.597 126.137C205.096 125.52 204.846 124.718 204.846 123.729C204.846 122.741 205.096 121.944 205.597 121.339C206.108 120.723 206.777 120.415 207.603 120.415C208.417 120.415 209.08 120.717 209.591 121.322C210.103 121.927 210.359 122.729 210.359 123.729C210.359 124.729 210.103 125.532 209.591 126.137C209.08 126.741 208.417 127.044 207.603 127.044ZM214.999 120.502H216.028L207.69 132.713H206.661L214.999 120.502ZM207.603 126.259C208.173 126.259 208.626 126.038 208.963 125.596C209.312 125.142 209.487 124.52 209.487 123.729C209.487 122.939 209.312 122.322 208.963 121.88C208.626 121.427 208.173 121.2 207.603 121.2C207.021 121.2 206.562 121.427 206.225 121.88C205.887 122.334 205.719 122.95 205.719 123.729C205.719 124.509 205.887 125.125 206.225 125.578C206.562 126.032 207.021 126.259 207.603 126.259ZM215.086 132.801C214.272 132.801 213.609 132.498 213.098 131.893C212.586 131.277 212.33 130.475 212.33 129.486C212.33 128.498 212.586 127.701 213.098 127.096C213.609 126.48 214.272 126.172 215.086 126.172C215.912 126.172 216.575 126.48 217.075 127.096C217.587 127.701 217.843 128.498 217.843 129.486C217.843 130.475 217.587 131.277 217.075 131.893C216.575 132.498 215.912 132.801 215.086 132.801ZM215.086 132.016C215.668 132.016 216.127 131.789 216.465 131.335C216.802 130.882 216.971 130.265 216.971 129.486C216.971 128.707 216.802 128.091 216.465 127.637C216.127 127.183 215.668 126.957 215.086 126.957C214.517 126.957 214.057 127.183 213.708 127.637C213.371 128.079 213.202 128.695 213.202 129.486C213.202 130.277 213.371 130.899 213.708 131.353C214.057 131.795 214.517 132.016 215.086 132.016Z" fill="#0A2354"/>
<path d="M400.501 128.197C400.501 162.262 372.886 189.877 338.821 189.877C304.756 189.877 277.141 162.262 277.141 128.197C277.141 94.1325 304.756 66.5176 338.821 66.5176C372.886 66.5176 400.501 94.1325 400.501 128.197ZM299.268 128.197C299.268 150.041 316.977 167.75 338.821 167.75C360.665 167.75 378.374 150.041 378.374 128.197C378.374 106.353 360.665 88.6447 338.821 88.6447C316.977 88.6447 299.268 106.353 299.268 128.197Z" fill="white"/>
<path d="M337.73 66.5176C352.004 66.5176 365.837 71.4688 376.87 80.5271C387.902 89.5854 395.451 102.19 398.23 116.192C401.008 130.193 398.844 144.725 392.106 157.31C385.369 169.895 374.474 179.753 361.281 185.203L352.832 164.753C361.292 161.258 368.278 154.936 372.599 146.866C376.92 138.796 378.307 129.477 376.526 120.499C374.744 111.52 369.903 103.437 362.828 97.6284C355.754 91.8197 346.883 88.6447 337.73 88.6447V66.5176Z" fill="#F9512D"/>
<path d="M277.122 139.649C274.762 127.16 276.319 114.246 281.578 102.675L301.722 111.831C298.349 119.251 297.351 127.532 298.865 135.541L277.122 139.649Z" fill="#66AC5C"/>
<path d="M365.329 183.357C356.745 187.653 347.276 189.885 337.678 189.877C328.079 189.869 318.614 187.621 310.037 183.311C301.46 179.001 294.007 172.749 288.272 165.053C282.536 157.356 278.676 148.427 276.999 138.975L298.786 135.109C299.861 141.169 302.336 146.895 306.014 151.831C309.692 156.767 314.472 160.776 319.972 163.539C325.472 166.303 331.541 167.745 337.696 167.75C343.852 167.755 349.923 166.323 355.428 163.569L365.329 183.357Z" fill="#F3D456"/>
<rect x="294.259" y="83.6343" width="89.3212" height="89.3212" rx="44.6606" fill="#EEF2FF"/>
<path d="M306.814 125.509C308.582 125.509 309.867 125.829 310.669 126.468C311.483 127.096 311.89 127.98 311.89 129.12C311.89 129.829 311.722 130.463 311.384 131.021C311.059 131.579 310.565 132.021 309.902 132.347C309.239 132.661 308.425 132.818 307.459 132.818C306.587 132.818 305.756 132.678 304.965 132.399C304.186 132.109 303.558 131.725 303.081 131.248L303.691 130.254C304.098 130.672 304.633 131.015 305.296 131.283C305.959 131.539 306.674 131.667 307.442 131.667C308.454 131.667 309.233 131.44 309.78 130.986C310.338 130.533 310.617 129.928 310.617 129.172C310.617 128.335 310.303 127.701 309.675 127.271C309.058 126.84 308.012 126.625 306.535 126.625H303.936L304.564 120.502H311.245V121.619H305.663L305.244 125.509H306.814ZM318.544 125.404C319.346 125.404 320.056 125.555 320.672 125.858C321.3 126.16 321.789 126.59 322.137 127.149C322.486 127.695 322.661 128.335 322.661 129.067C322.661 129.812 322.481 130.469 322.12 131.039C321.76 131.609 321.259 132.05 320.62 132.364C319.992 132.667 319.282 132.818 318.492 132.818C316.875 132.818 315.636 132.289 314.776 131.231C313.915 130.161 313.485 128.655 313.485 126.712C313.485 125.352 313.717 124.2 314.183 123.258C314.648 122.316 315.299 121.607 316.136 121.13C316.974 120.642 317.951 120.397 319.067 120.397C320.277 120.397 321.242 120.618 321.963 121.06L321.457 122.072C320.876 121.688 320.085 121.496 319.085 121.496C317.736 121.496 316.677 121.927 315.91 122.787C315.142 123.636 314.758 124.875 314.758 126.503C314.758 126.794 314.776 127.125 314.811 127.497C315.113 126.834 315.596 126.323 316.259 125.962C316.921 125.59 317.683 125.404 318.544 125.404ZM318.439 131.754C319.323 131.754 320.038 131.516 320.585 131.039C321.143 130.55 321.422 129.905 321.422 129.102C321.422 128.3 321.143 127.66 320.585 127.183C320.038 126.707 319.294 126.468 318.352 126.468C317.736 126.468 317.189 126.584 316.712 126.817C316.247 127.05 315.881 127.369 315.613 127.777C315.346 128.184 315.212 128.637 315.212 129.137C315.212 129.602 315.334 130.033 315.578 130.428C315.834 130.824 316.206 131.143 316.695 131.388C317.183 131.632 317.765 131.754 318.439 131.754ZM328.982 132.818C328.04 132.818 327.197 132.568 326.453 132.068C325.72 131.568 325.145 130.853 324.726 129.922C324.319 128.98 324.115 127.875 324.115 126.608C324.115 125.34 324.319 124.241 324.726 123.311C325.145 122.369 325.72 121.648 326.453 121.148C327.197 120.647 328.04 120.397 328.982 120.397C329.924 120.397 330.762 120.647 331.494 121.148C332.239 121.648 332.82 122.369 333.239 123.311C333.658 124.241 333.867 125.34 333.867 126.608C333.867 127.875 333.658 128.98 333.239 129.922C332.82 130.853 332.239 131.568 331.494 132.068C330.762 132.568 329.924 132.818 328.982 132.818ZM328.982 131.667C329.692 131.667 330.314 131.469 330.849 131.074C331.396 130.678 331.82 130.102 332.122 129.347C332.425 128.591 332.576 127.678 332.576 126.608C332.576 125.538 332.425 124.625 332.122 123.869C331.82 123.113 331.396 122.537 330.849 122.142C330.314 121.746 329.692 121.549 328.982 121.549C328.273 121.549 327.645 121.746 327.098 122.142C326.563 122.537 326.145 123.113 325.842 123.869C325.54 124.625 325.389 125.538 325.389 126.608C325.389 127.678 325.54 128.591 325.842 129.347C326.145 130.102 326.563 130.678 327.098 131.074C327.645 131.469 328.273 131.667 328.982 131.667ZM339.738 118.025H340.872L335.116 134.458H333.982L339.738 118.025ZM345.081 120.502V132.713H343.825V121.619H340.946V120.502H345.081ZM356.338 131.597V132.713H347.773V131.824L352.849 126.852C353.489 126.224 353.919 125.683 354.14 125.23C354.373 124.764 354.489 124.299 354.489 123.834C354.489 123.113 354.239 122.555 353.739 122.159C353.25 121.752 352.547 121.549 351.628 121.549C350.198 121.549 349.087 122.002 348.296 122.909L347.406 122.142C347.883 121.584 348.488 121.153 349.221 120.851C349.965 120.549 350.802 120.397 351.733 120.397C352.977 120.397 353.96 120.694 354.681 121.287C355.414 121.869 355.78 122.671 355.78 123.694C355.78 124.322 355.64 124.927 355.361 125.509C355.082 126.09 354.553 126.759 353.774 127.515L349.622 131.597H356.338ZM362.713 132.818C361.771 132.818 360.928 132.568 360.184 132.068C359.451 131.568 358.876 130.853 358.457 129.922C358.05 128.98 357.846 127.875 357.846 126.608C357.846 125.34 358.05 124.241 358.457 123.311C358.876 122.369 359.451 121.648 360.184 121.148C360.928 120.647 361.771 120.397 362.713 120.397C363.655 120.397 364.493 120.647 365.225 121.148C365.97 121.648 366.551 122.369 366.97 123.311C367.389 124.241 367.598 125.34 367.598 126.608C367.598 127.875 367.389 128.98 366.97 129.922C366.551 130.853 365.97 131.568 365.225 132.068C364.493 132.568 363.655 132.818 362.713 132.818ZM362.713 131.667C363.423 131.667 364.045 131.469 364.58 131.074C365.127 130.678 365.551 130.102 365.853 129.347C366.156 128.591 366.307 127.678 366.307 126.608C366.307 125.538 366.156 124.625 365.853 123.869C365.551 123.113 365.127 122.537 364.58 122.142C364.045 121.746 363.423 121.549 362.713 121.549C362.004 121.549 361.376 121.746 360.829 122.142C360.294 122.537 359.876 123.113 359.573 123.869C359.271 124.625 359.12 125.538 359.12 126.608C359.12 127.678 359.271 128.591 359.573 129.347C359.876 130.102 360.294 130.678 360.829 131.074C361.376 131.469 362.004 131.667 362.713 131.667ZM374.264 132.818C373.322 132.818 372.479 132.568 371.734 132.068C371.002 131.568 370.426 130.853 370.007 129.922C369.6 128.98 369.397 127.875 369.397 126.608C369.397 125.34 369.6 124.241 370.007 123.311C370.426 122.369 371.002 121.648 371.734 121.148C372.479 120.647 373.322 120.397 374.264 120.397C375.206 120.397 376.043 120.647 376.776 121.148C377.52 121.648 378.102 122.369 378.52 123.311C378.939 124.241 379.148 125.34 379.148 126.608C379.148 127.875 378.939 128.98 378.52 129.922C378.102 130.853 377.52 131.568 376.776 132.068C376.043 132.568 375.206 132.818 374.264 132.818ZM374.264 131.667C374.973 131.667 375.595 131.469 376.13 131.074C376.677 130.678 377.101 130.102 377.404 129.347C377.706 128.591 377.857 127.678 377.857 126.608C377.857 125.538 377.706 124.625 377.404 123.869C377.101 123.113 376.677 122.537 376.13 122.142C375.595 121.746 374.973 121.549 374.264 121.549C373.554 121.549 372.926 121.746 372.38 122.142C371.845 122.537 371.426 123.113 371.124 123.869C370.821 124.625 370.67 125.538 370.67 126.608C370.67 127.678 370.821 128.591 371.124 129.347C371.426 130.102 371.845 130.678 372.38 131.074C372.926 131.469 373.554 131.667 374.264 131.667Z" fill="#0A2354"/>
<g filter="url(#filter0_d_14_971)">
<rect x="66.5" y="277.877" width="406" height="85" rx="16" fill="white" shape-rendering="crispEdges"/>
<path d="M97.236 326.005C93.796 326.005 91.268 323.557 91.268 320.277C91.268 316.997 93.796 314.549 97.236 314.549C100.644 314.549 103.172 316.981 103.172 320.277C103.172 323.573 100.644 326.005 97.236 326.005ZM97.236 324.581C99.716 324.581 101.572 322.757 101.572 320.277C101.572 317.797 99.716 315.973 97.236 315.973C94.724 315.973 92.868 317.797 92.868 320.277C92.868 322.757 94.724 324.581 97.236 324.581ZM111.394 317.397H112.898L109.186 325.877H107.618L103.905 317.397H105.506L108.418 324.197L111.394 317.397ZM121.761 321.685C121.761 321.813 121.745 322.005 121.729 322.149H114.849C115.041 323.637 116.241 324.629 117.921 324.629C118.913 324.629 119.745 324.293 120.369 323.605L121.217 324.597C120.449 325.493 119.281 325.973 117.873 325.973C115.137 325.973 113.313 324.165 113.313 321.637C113.313 319.125 115.121 317.317 117.569 317.317C120.017 317.317 121.761 319.077 121.761 321.685ZM117.569 318.613C116.097 318.613 115.009 319.605 114.849 321.045H120.289C120.129 319.621 119.057 318.613 117.569 318.613ZM125.366 318.821C125.91 317.829 126.966 317.317 128.454 317.317V318.805C128.326 318.789 128.214 318.789 128.102 318.789C126.454 318.789 125.43 319.797 125.43 321.653V325.877H123.894V317.397H125.366V318.821ZM133.419 317.317C135.739 317.317 137.051 318.437 137.051 320.757V325.877H135.595V324.757C135.083 325.525 134.139 325.973 132.811 325.973C130.891 325.973 129.675 324.949 129.675 323.477C129.675 322.117 130.555 320.997 133.083 320.997H135.515V320.693C135.515 319.397 134.763 318.645 133.243 318.645C132.235 318.645 131.211 318.997 130.555 319.557L129.915 318.405C130.795 317.701 132.059 317.317 133.419 317.317ZM133.067 324.789C134.219 324.789 135.131 324.261 135.515 323.285V322.101H133.147C131.627 322.101 131.195 322.693 131.195 323.413C131.195 324.261 131.899 324.789 133.067 324.789ZM139.894 325.877V314.005H141.43V325.877H139.894ZM144.362 325.877V314.005H145.898V325.877H144.362Z" fill="#A7ABC0"/>
<rect x="159.5" y="313.474" width="289" height="13.8067" rx="6.90337" fill="#A7ABC0" fill-opacity="0.22"/>
<rect x="160.5" y="313.877" width="171" height="13" rx="6.5" fill="#0A2354"/>
</g>
<line x1="382.5" y1="244.518" x2="382.5" y2="301.518" stroke="#8C91A4" stroke-width="2" stroke-linecap="round" stroke-dasharray="0.5 7"/>
<g clip-path="url(#clip0_14_971)">
<path d="M393.609 224.402C393.439 226.528 392.663 228.562 391.372 230.26C390.082 231.959 388.33 233.251 386.327 233.983C384.323 234.716 382.151 234.858 380.069 234.392C377.987 233.927 376.083 232.873 374.582 231.357C373.081 229.841 372.047 227.926 371.603 225.84C371.158 223.753 371.322 221.583 372.074 219.587C372.827 217.591 374.137 215.853 375.848 214.579C377.559 213.305 379.6 212.55 381.729 212.402" stroke="#0A2354" stroke-width="1.71429" stroke-linecap="round" stroke-linejoin="round"/>
<path d="M387.283 225.386C386.973 226.183 386.47 226.89 385.818 227.443C385.167 227.997 384.388 228.379 383.551 228.555C382.715 228.732 381.848 228.697 381.028 228.454C380.209 228.212 379.462 227.768 378.857 227.165C378.252 226.561 377.807 225.816 377.562 224.997C377.317 224.178 377.28 223.311 377.454 222.474C377.629 221.637 378.009 220.857 378.561 220.204C379.112 219.551 379.818 219.046 380.614 218.735M382.5 223.517L386.786 219.232M386.786 219.232L390.214 220.089L393.643 216.66L390.214 215.803L389.357 212.375L385.929 215.803L386.786 219.232Z" stroke="#0A2354" stroke-width="1.71429" stroke-linecap="round" stroke-linejoin="round"/>
</g>
<path d="M378.679 318.133C379.323 318.133 379.892 318.254 380.387 318.497C380.891 318.74 381.283 319.085 381.563 319.533C381.843 319.972 381.983 320.485 381.983 321.073C381.983 321.67 381.838 322.198 381.549 322.655C381.259 323.112 380.858 323.467 380.345 323.719C379.841 323.962 379.271 324.083 378.637 324.083C377.339 324.083 376.345 323.658 375.655 322.809C374.964 321.95 374.619 320.742 374.619 319.183C374.619 318.091 374.805 317.167 375.179 316.411C375.552 315.655 376.075 315.086 376.747 314.703C377.419 314.311 378.203 314.115 379.099 314.115C380.069 314.115 380.844 314.292 381.423 314.647L381.017 315.459C380.55 315.151 379.915 314.997 379.113 314.997C378.03 314.997 377.181 315.342 376.565 316.033C375.949 316.714 375.641 317.708 375.641 319.015C375.641 319.248 375.655 319.514 375.683 319.813C375.925 319.281 376.313 318.87 376.845 318.581C377.377 318.282 377.988 318.133 378.679 318.133ZM378.595 323.229C379.304 323.229 379.878 323.038 380.317 322.655C380.765 322.263 380.989 321.745 380.989 321.101C380.989 320.457 380.765 319.944 380.317 319.561C379.878 319.178 379.281 318.987 378.525 318.987C378.03 318.987 377.591 319.08 377.209 319.267C376.835 319.454 376.541 319.71 376.327 320.037C376.112 320.364 376.005 320.728 376.005 321.129C376.005 321.502 376.103 321.848 376.299 322.165C376.504 322.482 376.803 322.739 377.195 322.935C377.587 323.131 378.053 323.229 378.595 323.229ZM385.866 314.199V323.999H384.858V315.095H382.548V314.199H385.866ZM390.28 319.449C389.618 319.449 389.081 319.206 388.67 318.721C388.269 318.226 388.068 317.582 388.068 316.789C388.068 315.996 388.269 315.356 388.67 314.871C389.081 314.376 389.618 314.129 390.28 314.129C390.934 314.129 391.466 314.372 391.876 314.857C392.287 315.342 392.492 315.986 392.492 316.789C392.492 317.592 392.287 318.236 391.876 318.721C391.466 319.206 390.934 319.449 390.28 319.449ZM396.216 314.199H397.042L390.35 323.999H389.524L396.216 314.199ZM390.28 318.819C390.738 318.819 391.102 318.642 391.372 318.287C391.652 317.923 391.792 317.424 391.792 316.789C391.792 316.154 391.652 315.66 391.372 315.305C391.102 314.941 390.738 314.759 390.28 314.759C389.814 314.759 389.445 314.941 389.174 315.305C388.904 315.669 388.768 316.164 388.768 316.789C388.768 317.414 388.904 317.909 389.174 318.273C389.445 318.637 389.814 318.819 390.28 318.819ZM396.286 324.069C395.633 324.069 395.101 323.826 394.69 323.341C394.28 322.846 394.074 322.202 394.074 321.409C394.074 320.616 394.28 319.976 394.69 319.491C395.101 318.996 395.633 318.749 396.286 318.749C396.949 318.749 397.481 318.996 397.882 319.491C398.293 319.976 398.498 320.616 398.498 321.409C398.498 322.202 398.293 322.846 397.882 323.341C397.481 323.826 396.949 324.069 396.286 324.069ZM396.286 323.439C396.753 323.439 397.122 323.257 397.392 322.893C397.663 322.529 397.798 322.034 397.798 321.409C397.798 320.784 397.663 320.289 397.392 319.925C397.122 319.561 396.753 319.379 396.286 319.379C395.829 319.379 395.46 319.561 395.18 319.925C394.91 320.28 394.774 320.774 394.774 321.409C394.774 322.044 394.91 322.543 395.18 322.907C395.46 323.262 395.829 323.439 396.286 323.439Z" fill="#A7ABC0"/>
<defs>
<filter id="filter0_d_14_971" x="44.5" y="267.877" width="450" height="129" filterUnits="userSpaceOnUse" color-interpolation-filters="sRGB">
<feFlood flood-opacity="0" result="BackgroundImageFix"/>
<feColorMatrix in="SourceAlpha" type="matrix" values="0 0 0 0 0 0 0 0 0 0 0 0 0 0 0 0 0 0 127 0" result="hardAlpha"/>
<feOffset dy="12"/>
<feGaussianBlur stdDeviation="11"/>
<feComposite in2="hardAlpha" operator="out"/>
<feColorMatrix type="matrix" values="0 0 0 0 0 0 0 0 0 0 0 0 0 0 0 0 0 0 0.06 0"/>
<feBlend mode="normal" in2="BackgroundImageFix" result="effect1_dropShadow_14_971"/>
<feBlend mode="normal" in="SourceGraphic" in2="effect1_dropShadow_14_971" result="shape"/>
</filter>
<clipPath id="clip0_14_971">
<rect width="24" height="24" fill="white" transform="translate(370.5 211.518)"/>
</clipPath>
</defs>
</svg>
