<svg width="326" height="20" viewBox="0 0 326 20" fill="none" xmlns="http://www.w3.org/2000/svg">
<path d="M302.891 19.8668V0.329082H306.115L314.859 0.301758C318.393 0.301758 321.135 1.13063 323.084 2.78837C325.033 4.44611 326.008 6.87807 326.008 10.0843C326.008 13.2904 325.033 15.7224 323.084 17.3801C321.135 19.0379 318.393 19.8668 314.859 19.8668H302.891ZM314.559 3.85406H307.263V16.3145H314.559C316.854 16.3145 318.594 15.8135 319.778 14.8116C320.962 13.8096 321.554 12.2339 321.554 10.0843C321.554 7.91644 320.962 6.34067 319.778 5.35696C318.594 4.35503 316.854 3.85406 314.559 3.85406Z" fill="#0A2354"/>
<path d="M284.423 20.0034C282.437 20.0034 280.871 19.7484 279.723 19.2383C278.575 18.71 277.756 17.9176 277.264 16.861C276.772 15.8044 276.526 14.4746 276.526 12.8715V0.329102H280.898V12.8715C280.898 14.256 281.217 15.2032 281.854 15.7133C282.51 16.2052 283.612 16.4511 285.161 16.4511H290.435C291.983 16.4511 293.076 16.2052 293.714 15.7133C294.369 15.2032 294.697 14.256 294.697 12.8715V0.329102H299.069V12.8715C299.069 14.4746 298.823 15.8044 298.332 16.861C297.84 17.9176 297.02 18.71 295.872 19.2383C294.725 19.7484 293.158 20.0034 291.172 20.0034H284.423Z" fill="#0A2354"/>
<path d="M257.544 20.0033C254.064 20.0033 251.368 19.1744 249.455 17.5167C247.543 15.8407 246.586 13.3632 246.586 10.0842C246.586 6.82335 247.543 4.36406 249.455 2.70632C251.368 1.03036 254.128 0.192383 257.735 0.192383H262.654C266.26 0.192383 269.02 1.03036 270.933 2.70632C272.846 4.36406 273.802 6.82335 273.802 10.0842C273.802 13.3632 272.846 15.8407 270.933 17.5167C269.02 19.1744 266.306 20.0033 262.79 20.0033H257.544ZM258.036 3.74469C256.013 3.74469 254.438 4.10903 253.308 4.8377C252.179 5.56638 251.468 6.72316 251.177 8.30803H269.212C268.92 6.72316 268.21 5.56638 267.08 4.8377C265.951 4.10903 264.375 3.74469 262.353 3.74469H258.036ZM258.117 16.451H262.353C264.393 16.451 265.969 16.0867 267.08 15.358C268.21 14.6293 268.92 13.4634 269.212 11.8603H251.177C251.468 13.4634 252.179 14.6293 253.308 15.358C254.438 16.0867 256.041 16.451 258.117 16.451Z" fill="#0A2354"/>
<path d="M227.105 19.8668V0.329102H231.477V16.3145H245.768V19.8668H227.105Z" fill="#0A2354"/>
<path d="M214.265 20.0036C210.658 20.0036 207.898 19.1747 205.986 17.517C204.073 15.841 203.116 13.3635 203.116 10.0845C203.116 6.82365 204.073 4.35525 205.986 2.67929C207.898 1.00333 210.658 0.17446 214.265 0.192677L224.102 0.247327V3.74498H214.566C212.198 3.74498 210.44 4.24595 209.292 5.24788C208.144 6.24981 207.57 7.86201 207.57 10.0845C207.57 12.3069 208.144 13.9283 209.292 14.9484C210.44 15.9503 212.198 16.4513 214.566 16.4513H224.376V20.0036H214.265Z" fill="#0A2354"/>
<path d="M178.725 19.8668V0.329102H195.093C197.115 0.329102 198.682 0.839176 199.793 1.85932C200.923 2.87947 201.487 4.42791 201.487 6.50465C201.487 8.58138 200.923 10.1298 199.793 11.15C198.682 12.1701 197.115 12.6802 195.093 12.6802H183.097V19.8668H178.725ZM194.574 3.88141H183.097V9.10056L194.574 9.12789C195.376 9.12789 195.986 8.9275 196.405 8.52673C196.842 8.12595 197.061 7.45193 197.061 6.50465C197.061 5.53915 196.842 4.86512 196.405 4.48256C195.986 4.08179 195.376 3.88141 194.574 3.88141Z" fill="#0069FF"/>
<path d="M154.309 19.8668V0.329102H175.732V3.88141H158.681V8.19882H174.147V11.7511H158.681V16.3145H175.732V19.8668H154.309Z" fill="#0069FF"/>
<path d="M128.264 19.8668V0.329102H144.632C146.654 0.329102 148.221 0.839176 149.332 1.85932C150.461 2.87947 151.026 4.42791 151.026 6.50465C151.026 8.27169 150.616 9.65618 149.796 10.6581C148.977 11.66 147.811 12.2885 146.299 12.5436L150.807 19.8668H145.834L141.653 12.6802H132.636V19.8668H128.264ZM144.113 3.88141H132.636V9.10056L144.113 9.12789C144.914 9.12789 145.524 8.9275 145.943 8.52673C146.381 8.12595 146.599 7.45193 146.599 6.50465C146.599 5.53915 146.381 4.86512 145.943 4.48256C145.524 4.08179 144.914 3.88141 144.113 3.88141Z" fill="#0069FF"/>
<path d="M102.78 19.8668V0.329102H119.148C121.17 0.329102 122.736 0.839176 123.848 1.85932C124.977 2.87947 125.542 4.42791 125.542 6.50465C125.542 8.58138 124.977 10.1298 123.848 11.15C122.736 12.1701 121.17 12.6802 119.148 12.6802H107.152V19.8668H102.78ZM118.629 3.88141H107.152V9.10056L118.629 9.12789C119.43 9.12789 120.04 8.9275 120.459 8.52673C120.897 8.12595 121.115 7.45193 121.115 6.50465C121.115 5.53915 120.897 4.86512 120.459 4.48256C120.04 4.08179 119.43 3.88141 118.629 3.88141Z" fill="#0069FF"/>
<path d="M75.5986 10.2209V0.329102H99.645V10.2209H95.2183V3.88141H89.2613V19.8668H84.8893V3.88141H80.0254V10.2209H75.5986Z" fill="#0A2354"/>
<path d="M50.9697 20.0033V16.451L66.6818 16.4783C67.4833 16.4783 68.0936 16.2962 68.5126 15.9318C68.9498 15.5493 69.1684 14.939 69.1684 14.101C69.1684 13.263 68.9498 12.6619 68.5126 12.2975C68.0936 11.915 67.4833 11.7237 66.6818 11.7237H56.8993C54.8772 11.7237 53.3014 11.241 52.172 10.2755C51.0607 9.29175 50.5051 7.85261 50.5051 5.95805C50.5051 4.06348 51.0607 2.63345 52.172 1.66796C53.3014 0.684241 54.8772 0.192383 56.8993 0.192383H72.2562V3.74469L57.3638 3.71736C56.5805 3.71736 55.9702 3.89953 55.533 4.26387C55.0958 4.60999 54.8772 5.17472 54.8772 5.95805C54.8772 6.74137 55.0958 7.31521 55.533 7.67955C55.9702 8.02567 56.5805 8.19873 57.3638 8.19873H67.1463C69.1684 8.19873 70.735 8.6997 71.8463 9.70163C72.9757 10.6853 73.5405 12.1518 73.5405 14.101C73.5405 16.032 72.9757 17.4985 71.8463 18.5004C70.735 19.5023 69.1684 20.0033 67.1463 20.0033H50.9697Z" fill="#0A2354"/>
<path d="M27.1814 19.8668V0.329102H48.6045V3.88141H31.5535V8.19882H47.0196V11.7511H31.5535V16.3145H48.6045V19.8668H27.1814Z" fill="#0A2354"/>
<path d="M0 10.2209V0.329102H24.0464V10.2209H19.6196V3.88141H13.6627V19.8668H9.29064V3.88141H4.42672V10.2209H0Z" fill="#0A2354"/>
</svg>
